<svg width="978" height="261" viewBox="0 0 978 261" fill="none" xmlns="http://www.w3.org/2000/svg">
<path d="M974.93 163H967.25V79.8H974.93V163Z" fill="black"/>
<path d="M921.18 81.08V134.456C927.068 116.792 950.492 116.152 950.492 95.928C950.492 86.584 943.836 81.08 932.444 81.08H921.18ZM927.58 126.264C923.74 130.36 921.18 135.608 921.18 143.16V163H913.5V79.8H935.516C949.98 79.8 958.812 86.456 958.812 96.44C958.812 108.344 947.804 112.568 937.692 118.584C938.844 118.328 940.124 118.2 941.532 118.2C954.204 118.2 960.86 128.696 960.86 149.176V163H953.052V145.976C953.052 128.44 948.7 119.48 940.124 119.48C936.028 119.48 933.596 120.76 927.58 126.264Z" fill="black"/>
<path d="M908.43 163H900.75V79.8H908.43V163Z" fill="black"/>
<path d="M888.001 138.424V126.392H895.681V138.168C895.681 153.4 882.497 163.64 862.913 163.64C837.441 163.64 818.625 145.72 818.625 121.4C818.625 98.744 838.465 78.52 860.737 78.52C874.177 78.52 886.593 85.56 894.657 97.592L887.105 108.216C881.857 90.552 870.721 80.184 857.281 80.184C840.769 80.184 827.585 96.184 827.585 116.408C827.585 141.624 844.737 162.104 865.729 162.104C880.577 162.104 888.001 154.296 888.001 138.424Z" fill="black"/>
<path d="M784.613 85.432L765.669 134.712H803.429L784.613 85.432ZM753.253 163L783.845 83.384L782.437 79.8H790.629L822.501 163H814.309L803.941 135.992H765.157L754.789 163H753.253Z" fill="black"/>
<path d="M749.258 79.8V163H741.578V120.248H698.058V163H690.378V79.8H698.058V118.968H741.578V79.8H749.258Z" fill="black"/>
<path d="M647.973 80.824H617.253V79.544H686.373V80.824H655.653V162.744H647.973V80.824Z" fill="black"/>
<path d="M564.638 79.8L611.998 155.32V79.8H613.278V163H607.518L560.03 87.224V163H558.75V79.8H564.638Z" fill="black"/>
<path d="M516.988 85.432L498.044 134.712H535.804L516.988 85.432ZM485.628 163L516.22 83.384L514.812 79.8H523.004L554.876 163H546.684L536.316 135.992H497.532L487.164 163H485.628Z" fill="black"/>
<path d="M448.383 79.8V163H440.703V120.248H397.183V163H389.503V79.8H397.183V118.968H440.703V79.8H448.383Z" fill="black"/>
<path d="M347.098 80.824H316.378V79.544H385.498V80.824H354.778V162.744H347.098V80.824Z" fill="black"/>
<path d="M312.43 163H304.75V79.8H312.43V163Z" fill="black"/>
<path d="M299.633 79.8V163H291.953V120.248H248.433V163H240.753V79.8H248.433V118.968H291.953V79.8H299.633Z" fill="black"/>
<path d="M190.205 92.6C190.205 116.152 233.981 122.808 233.981 144.44C233.981 155.064 222.205 163.384 207.485 163.384C194.173 163.384 184.061 158.52 176.125 148.536L182.653 142.264C192.125 155.96 200.061 162.104 208.381 162.104C218.493 162.104 225.021 156.984 225.021 149.176C225.021 127.928 181.757 121.016 181.757 97.976C181.757 87.096 192.125 78.648 205.565 78.648C215.933 78.648 226.813 84.28 234.109 93.368L229.885 100.792C223.741 87.48 214.909 79.928 205.309 79.928C195.965 79.928 190.205 84.792 190.205 92.6Z" fill="black"/>
<path d="M131.305 81.08V134.456C137.193 116.792 160.617 116.152 160.617 95.928C160.617 86.584 153.961 81.08 142.569 81.08H131.305ZM137.705 126.264C133.865 130.36 131.305 135.608 131.305 143.16V163H123.625V79.8H145.641C160.105 79.8 168.937 86.456 168.937 96.44C168.937 108.344 157.929 112.568 147.817 118.584C148.969 118.328 150.249 118.2 151.657 118.2C164.329 118.2 170.985 128.696 170.985 149.176V163H163.177V145.976C163.177 128.44 158.825 119.48 150.249 119.48C146.153 119.48 143.721 120.76 137.705 126.264Z" fill="black"/>
<path d="M81.488 85.432L62.544 134.712H100.304L81.488 85.432ZM50.128 163L80.72 83.384L79.312 79.8H87.504L119.376 163H111.184L100.816 135.992H62.032L51.664 163H50.128Z" fill="black"/>
<path d="M9.44499 79.8L39.269 157.752L69.221 79.8H70.757L38.885 163H33.125L1.25299 79.8H9.44499Z" fill="black"/>
<path d="M962.341 247.768C952.997 247.768 945.125 239.576 945.125 229.912C945.125 221.08 951.781 214.232 960.229 214.232C969.509 214.232 977.381 222.424 977.381 232.088C977.381 240.92 970.789 247.768 962.341 247.768ZM948.965 227.48C948.965 237.784 955.941 247 963.749 247C969.381 247 973.541 241.816 973.541 234.712C973.541 224.728 966.181 215.192 958.437 215.192C952.549 215.192 948.965 219.864 948.965 227.48Z" fill="black"/>
<path d="M938.812 210.072C938.812 208.92 939.772 207.96 940.988 207.96C942.14 207.96 943.164 208.92 943.164 210.072C943.164 211.288 942.14 212.248 940.988 212.248C939.772 212.248 938.812 211.288 938.812 210.072ZM942.525 247H939.324V215H942.525V247Z" fill="black"/>
<path d="M936.264 247H933.064V205.4H936.264V247Z" fill="black"/>
<path d="M915.341 247.768C905.997 247.768 898.125 239.576 898.125 229.912C898.125 221.08 904.781 214.232 913.229 214.232C922.509 214.232 930.381 222.424 930.381 232.088C930.381 240.92 923.789 247.768 915.341 247.768ZM901.965 227.48C901.965 237.784 908.941 247 916.749 247C922.381 247 926.541 241.816 926.541 234.712C926.541 224.728 919.181 215.192 911.437 215.192C905.549 215.192 901.965 219.864 901.965 227.48Z" fill="black"/>
<path d="M894.653 215.64V247H891.453V215.64H888.189V215H891.453V210.584C891.453 207.448 893.245 205.4 896.125 205.4C897.917 205.4 899.773 206.424 901.949 208.792L900.413 213.016C898.237 210.136 895.293 208.024 893.437 208.024C892.605 208.024 892.093 208.536 892.093 209.304C892.093 210.84 894.653 212.184 894.653 215H898.813V215.64H894.653Z" fill="black"/>
<path d="M877.319 207.96H880.519V214.872H885.703V215.512H880.519V241.112C880.519 244.632 881.799 246.232 884.615 246.232C885.895 246.232 886.983 245.4 887.943 243.864H888.071C886.919 245.976 885.511 246.872 883.399 246.872C879.431 246.872 877.319 244.44 877.319 239.896V215.512H874.439V214.872H877.319V207.96Z" fill="black"/>
<path d="M856.7 235.8V247H853.5V215H856.7V228.376C858.428 219.352 863.42 215 871.996 215L873.084 218.008C862.652 218.776 856.892 225.048 856.7 235.8Z" fill="black"/>
<path d="M835.841 247.768C826.497 247.768 818.625 239.576 818.625 229.912C818.625 221.08 825.281 214.232 833.729 214.232C843.009 214.232 850.881 222.424 850.881 232.088C850.881 240.92 844.289 247.768 835.841 247.768ZM822.465 227.48C822.465 237.784 829.441 247 837.249 247C842.881 247 847.041 241.816 847.041 234.712C847.041 224.728 839.681 215.192 831.937 215.192C826.049 215.192 822.465 219.864 822.465 227.48Z" fill="black"/>
<path d="M789.45 227.864V232.6C789.514 239.768 795.914 246.424 802.762 246.424C808.65 246.424 812.234 241.88 812.234 234.392C812.234 224.088 805.77 215.32 798.154 215.32C791.626 215.32 789.45 222.488 789.45 227.864ZM789.45 227.672V227.864C789.45 227.8 789.45 227.736 789.45 227.672ZM789.45 242.648V259.8H786.25V215H789.45V219.16C791.754 216.216 794.954 214.68 798.922 214.68C808.202 214.68 816.074 222.616 816.074 232.024C816.074 240.6 809.482 247.256 800.97 247.256C797.386 247.256 792.714 245.336 789.45 242.648Z" fill="black"/>
<path d="M752.523 245.272L740.939 215H744.395L755.595 244.376L766.859 215H767.627L755.403 247C752.139 255.448 749.963 258.072 744.523 260.504L742.731 257.496C749.451 255.896 751.947 253.72 754.571 247C753.483 247 753.035 246.616 752.523 245.272Z" fill="black"/>
<path d="M738.846 205.4V247H735.005V211.48L721.374 247H719.837L706.077 211.16V247H705.438V205.4H707.997L722.27 242.648L736.605 205.4H738.846Z" fill="black"/>
<path d="M58.014 34.768V42H54.814V10H58.014V26.448C59.678 16.336 64.35 10 70.75 10C76.766 10 80.222 14.096 80.222 21.2V26.448C81.886 16.336 86.622 10 92.958 10C98.974 10 102.43 14.096 102.43 21.2V42H99.23V21.264C99.23 14.352 96.798 10.64 92.318 10.64C85.278 10.64 80.222 20.752 80.222 34.768V42H77.022V21.264C77.022 14.352 74.59 10.64 70.11 10.64C63.07 10.64 58.014 20.752 58.014 34.768Z" fill="black"/>
<path d="M48.999 24.336C48.999 17.232 42.535 10.512 35.687 10.512C29.735 10.512 26.215 15.184 26.215 22.992C26.215 33.168 32.935 41.616 40.999 41.616C45.479 41.616 48.999 37.392 48.999 31.952V24.336ZM52.199 9.99999V42H48.999V38.032C46.823 40.848 43.751 42.256 39.591 42.256C30.247 42.256 22.375 34.32 22.375 24.912C22.375 16.336 29.031 9.67999 37.479 9.67999C41.255 9.67999 45.671 11.472 48.999 14.288V9.99999H52.199Z" fill="black"/>
<path d="M3.84 42H0V0.399994H3.84V42Z" fill="black"/>
</svg>
