<svg width="974" height="212" viewBox="0 0 974 212" fill="none" xmlns="http://www.w3.org/2000/svg">
<path d="M973.93 144H966.25V60.8H973.93V144Z" fill="black"/>
<path d="M920.18 62.08V115.456C926.068 97.792 949.492 97.152 949.492 76.928C949.492 67.584 942.836 62.08 931.444 62.08H920.18ZM926.58 107.264C922.74 111.36 920.18 116.608 920.18 124.16V144H912.5V60.8H934.516C948.98 60.8 957.812 67.456 957.812 77.44C957.812 89.344 946.804 93.568 936.692 99.584C937.844 99.328 939.124 99.2 940.532 99.2C953.204 99.2 959.86 109.696 959.86 130.176V144H952.052V126.976C952.052 109.44 947.7 100.48 939.124 100.48C935.028 100.48 932.596 101.76 926.58 107.264Z" fill="black"/>
<path d="M907.43 144H899.75V60.8H907.43V144Z" fill="black"/>
<path d="M887.001 119.424V107.392H894.681V119.168C894.681 134.4 881.497 144.64 861.913 144.64C836.441 144.64 817.625 126.72 817.625 102.4C817.625 79.744 837.465 59.52 859.737 59.52C873.177 59.52 885.593 66.56 893.657 78.592L886.105 89.216C880.857 71.552 869.721 61.184 856.281 61.184C839.769 61.184 826.585 77.184 826.585 97.408C826.585 122.624 843.737 143.104 864.729 143.104C879.577 143.104 887.001 135.296 887.001 119.424Z" fill="black"/>
<path d="M783.613 66.432L764.669 115.712H802.429L783.613 66.432ZM752.253 144L782.845 64.384L781.437 60.8H789.629L821.501 144H813.309L802.941 116.992H764.157L753.789 144H752.253Z" fill="black"/>
<path d="M748.258 60.8V144H740.578V101.248H697.058V144H689.378V60.8H697.058V99.968H740.578V60.8H748.258Z" fill="black"/>
<path d="M646.973 61.824H616.253V60.544H685.373V61.824H654.653V143.744H646.973V61.824Z" fill="black"/>
<path d="M563.638 60.8L610.998 136.32V60.8H612.278V144H606.518L559.03 68.224V144H557.75V60.8H563.638Z" fill="black"/>
<path d="M515.988 66.432L497.044 115.712H534.804L515.988 66.432ZM484.628 144L515.22 64.384L513.812 60.8H522.004L553.876 144H545.684L535.316 116.992H496.532L486.164 144H484.628Z" fill="black"/>
<path d="M447.383 60.8V144H439.703V101.248H396.183V144H388.503V60.8H396.183V99.968H439.703V60.8H447.383Z" fill="black"/>
<path d="M346.098 61.824H315.378V60.544H384.498V61.824H353.778V143.744H346.098V61.824Z" fill="black"/>
<path d="M311.43 144H303.75V60.8H311.43V144Z" fill="black"/>
<path d="M298.633 60.8V144H290.953V101.248H247.433V144H239.753V60.8H247.433V99.968H290.953V60.8H298.633Z" fill="black"/>
<path d="M189.205 73.6C189.205 97.152 232.981 103.808 232.981 125.44C232.981 136.064 221.205 144.384 206.485 144.384C193.173 144.384 183.061 139.52 175.125 129.536L181.653 123.264C191.125 136.96 199.061 143.104 207.381 143.104C217.493 143.104 224.021 137.984 224.021 130.176C224.021 108.928 180.757 102.016 180.757 78.976C180.757 68.096 191.125 59.648 204.565 59.648C214.933 59.648 225.813 65.28 233.109 74.368L228.885 81.792C222.741 68.48 213.909 60.928 204.309 60.928C194.965 60.928 189.205 65.792 189.205 73.6Z" fill="black"/>
<path d="M130.305 62.08V115.456C136.193 97.792 159.617 97.152 159.617 76.928C159.617 67.584 152.961 62.08 141.569 62.08H130.305ZM136.705 107.264C132.865 111.36 130.305 116.608 130.305 124.16V144H122.625V60.8H144.641C159.105 60.8 167.937 67.456 167.937 77.44C167.937 89.344 156.929 93.568 146.817 99.584C147.969 99.328 149.249 99.2 150.657 99.2C163.329 99.2 169.985 109.696 169.985 130.176V144H162.177V126.976C162.177 109.44 157.825 100.48 149.249 100.48C145.153 100.48 142.721 101.76 136.705 107.264Z" fill="black"/>
<path d="M80.488 66.432L61.544 115.712H99.304L80.488 66.432ZM49.128 144L79.72 64.384L78.312 60.8H86.504L118.376 144H110.184L99.816 116.992H61.032L50.664 144H49.128Z" fill="black"/>
<path d="M8.44499 60.8L38.269 138.752L68.221 60.8H69.757L37.885 144H32.125L0.252991 60.8H8.44499Z" fill="black"/>
<path d="M958.904 198.368C949.56 198.368 941.688 190.176 941.688 180.512C941.688 171.68 948.344 164.832 956.792 164.832C966.072 164.832 973.944 173.024 973.944 182.688C973.944 191.52 967.352 198.368 958.904 198.368ZM945.527 178.08C945.527 188.384 952.503 197.6 960.311 197.6C965.943 197.6 970.104 192.416 970.104 185.312C970.104 175.328 962.744 165.792 955 165.792C949.112 165.792 945.527 170.464 945.527 178.08Z" fill="black"/>
<path d="M935.375 160.672C935.375 159.52 936.335 158.56 937.551 158.56C938.703 158.56 939.727 159.52 939.727 160.672C939.727 161.888 938.703 162.848 937.551 162.848C936.335 162.848 935.375 161.888 935.375 160.672ZM939.087 197.6H935.887V165.6H939.087V197.6Z" fill="black"/>
<path d="M932.826 197.6H929.626V156H932.826V197.6Z" fill="black"/>
<path d="M911.904 198.368C902.56 198.368 894.688 190.176 894.688 180.512C894.688 171.68 901.344 164.832 909.792 164.832C919.072 164.832 926.944 173.024 926.944 182.688C926.944 191.52 920.352 198.368 911.904 198.368ZM898.527 178.08C898.527 188.384 905.503 197.6 913.311 197.6C918.943 197.6 923.104 192.416 923.104 185.312C923.104 175.328 915.744 165.792 908 165.792C902.112 165.792 898.527 170.464 898.527 178.08Z" fill="black"/>
<path d="M891.215 166.24V197.6H888.015V166.24H884.751V165.6H888.015V161.184C888.015 158.048 889.807 156 892.687 156C894.479 156 896.335 157.024 898.511 159.392L896.975 163.616C894.799 160.736 891.855 158.624 889.999 158.624C889.167 158.624 888.655 159.136 888.655 159.904C888.655 161.44 891.215 162.784 891.215 165.6H895.375V166.24H891.215Z" fill="black"/>
<path d="M873.881 158.56H877.081V165.472H882.265V166.112H877.081V191.712C877.081 195.232 878.361 196.832 881.177 196.832C882.457 196.832 883.545 196 884.505 194.464H884.633C883.481 196.576 882.073 197.472 879.961 197.472C875.993 197.472 873.881 195.04 873.881 190.496V166.112H871.001V165.472H873.881V158.56Z" fill="black"/>
<path d="M853.263 186.4V197.6H850.062V165.6H853.263V178.976C854.991 169.952 859.983 165.6 868.559 165.6L869.647 168.608C859.215 169.376 853.455 175.648 853.263 186.4Z" fill="black"/>
<path d="M832.404 198.368C823.06 198.368 815.188 190.176 815.188 180.512C815.188 171.68 821.844 164.832 830.292 164.832C839.572 164.832 847.444 173.024 847.444 182.688C847.444 191.52 840.852 198.368 832.404 198.368ZM819.027 178.08C819.027 188.384 826.003 197.6 833.811 197.6C839.443 197.6 843.604 192.416 843.604 185.312C843.604 175.328 836.244 165.792 828.5 165.792C822.612 165.792 819.027 170.464 819.027 178.08Z" fill="black"/>
<path d="M786.013 178.464V183.2C786.077 190.368 792.476 197.024 799.324 197.024C805.212 197.024 808.797 192.48 808.797 184.992C808.797 174.688 802.332 165.92 794.716 165.92C788.188 165.92 786.013 173.088 786.013 178.464ZM786.013 178.272V178.464C786.013 178.4 786.013 178.336 786.013 178.272ZM786.013 193.248V210.4H782.812V165.6H786.013V169.76C788.317 166.816 791.516 165.28 795.484 165.28C804.764 165.28 812.637 173.216 812.637 182.624C812.637 191.2 806.045 197.856 797.533 197.856C793.949 197.856 789.277 195.936 786.013 193.248Z" fill="black"/>
<path d="M749.085 195.872L737.501 165.6H740.958L752.158 194.976L763.422 165.6H764.19L751.965 197.6C748.701 206.048 746.525 208.672 741.085 211.104L739.294 208.096C746.014 206.496 748.509 204.32 751.133 197.6C750.045 197.6 749.597 197.216 749.085 195.872Z" fill="black"/>
<path d="M735.408 156V197.6H731.568V162.08L717.936 197.6H716.4L702.64 161.76V197.6H702V156H704.56L718.832 193.248L733.168 156H735.408Z" fill="black"/>
<path d="M58.014 34.368V41.6H54.814V9.60001H58.014V26.048C59.678 15.936 64.35 9.60001 70.75 9.60001C76.766 9.60001 80.222 13.696 80.222 20.8V26.048C81.886 15.936 86.622 9.60001 92.958 9.60001C98.974 9.60001 102.43 13.696 102.43 20.8V41.6H99.23V20.864C99.23 13.952 96.798 10.24 92.318 10.24C85.278 10.24 80.222 20.352 80.222 34.368V41.6H77.022V20.864C77.022 13.952 74.59 10.24 70.11 10.24C63.07 10.24 58.014 20.352 58.014 34.368Z" fill="black"/>
<path d="M48.999 23.936C48.999 16.832 42.535 10.112 35.687 10.112C29.735 10.112 26.215 14.784 26.215 22.592C26.215 32.768 32.935 41.216 40.999 41.216C45.479 41.216 48.999 36.992 48.999 31.552V23.936ZM52.199 9.6V41.6H48.999V37.632C46.823 40.448 43.751 41.856 39.591 41.856C30.247 41.856 22.375 33.92 22.375 24.512C22.375 15.936 29.031 9.28 37.479 9.28C41.255 9.28 45.671 11.072 48.999 13.888V9.6H52.199Z" fill="black"/>
<path d="M3.84 41.6H0V0H3.84V41.6Z" fill="black"/>
</svg>
