<svg width="974" height="86" viewBox="0 0 974 86" fill="none" xmlns="http://www.w3.org/2000/svg">
<path d="M973.805 85H966.125V1.8H973.805V85Z" fill="black"/>
<path d="M920.055 3.07999V56.456C925.943 38.792 949.367 38.152 949.367 17.928C949.367 8.584 942.711 3.07999 931.319 3.07999H920.055ZM926.455 48.264C922.615 52.36 920.055 57.608 920.055 65.16V85H912.375V1.8H934.391C948.855 1.8 957.687 8.45599 957.687 18.44C957.687 30.344 946.679 34.568 936.567 40.584C937.719 40.328 938.999 40.2 940.407 40.2C953.079 40.2 959.735 50.696 959.735 71.176V85H951.927V67.976C951.927 50.44 947.575 41.48 938.999 41.48C934.903 41.48 932.471 42.76 926.455 48.264Z" fill="black"/>
<path d="M907.305 85H899.625V1.8H907.305V85Z" fill="black"/>
<path d="M886.876 60.424V48.392H894.556V60.168C894.556 75.4 881.372 85.64 861.788 85.64C836.316 85.64 817.5 67.72 817.5 43.4C817.5 20.744 837.34 0.519997 859.612 0.519997C873.052 0.519997 885.468 7.56 893.532 19.592L885.98 30.216C880.732 12.552 869.596 2.184 856.156 2.184C839.644 2.184 826.46 18.184 826.46 38.408C826.46 63.624 843.612 84.104 864.604 84.104C879.452 84.104 886.876 76.296 886.876 60.424Z" fill="black"/>
<path d="M783.488 7.432L764.544 56.712H802.304L783.488 7.432ZM752.128 85L782.72 5.384L781.312 1.8H789.504L821.376 85H813.184L802.816 57.992H764.032L753.664 85H752.128Z" fill="black"/>
<path d="M748.133 1.8V85H740.453V42.248H696.933V85H689.253V1.8H696.933V40.968H740.453V1.8H748.133Z" fill="black"/>
<path d="M646.848 2.824H616.128V1.544H685.248V2.824H654.528V84.744H646.848V2.824Z" fill="black"/>
<path d="M563.513 1.8L610.873 77.32V1.8H612.153V85H606.393L558.905 9.224V85H557.625V1.8H563.513Z" fill="black"/>
<path d="M515.863 7.432L496.919 56.712H534.679L515.863 7.432ZM484.503 85L515.095 5.384L513.687 1.8H521.879L553.751 85H545.559L535.191 57.992H496.407L486.039 85H484.503Z" fill="black"/>
<path d="M447.258 1.8V85H439.578V42.248H396.058V85H388.378V1.8H396.058V40.968H439.578V1.8H447.258Z" fill="black"/>
<path d="M345.973 2.824H315.253V1.544H384.373V2.824H353.653V84.744H345.973V2.824Z" fill="black"/>
<path d="M311.305 85H303.625V1.8H311.305V85Z" fill="black"/>
<path d="M298.508 1.8V85H290.828V42.248H247.308V85H239.628V1.8H247.308V40.968H290.828V1.8H298.508Z" fill="black"/>
<path d="M189.08 14.6C189.08 38.152 232.856 44.808 232.856 66.44C232.856 77.064 221.08 85.384 206.36 85.384C193.048 85.384 182.936 80.52 175 70.536L181.528 64.264C191 77.96 198.936 84.104 207.256 84.104C217.368 84.104 223.896 78.984 223.896 71.176C223.896 49.928 180.632 43.016 180.632 19.976C180.632 9.09599 191 0.647995 204.44 0.647995C214.808 0.647995 225.688 6.28 232.984 15.368L228.76 22.792C222.616 9.48 213.784 1.92799 204.184 1.92799C194.84 1.92799 189.08 6.792 189.08 14.6Z" fill="black"/>
<path d="M130.18 3.07999V56.456C136.068 38.792 159.492 38.152 159.492 17.928C159.492 8.584 152.836 3.07999 141.444 3.07999H130.18ZM136.58 48.264C132.74 52.36 130.18 57.608 130.18 65.16V85H122.5V1.8H144.516C158.98 1.8 167.812 8.45599 167.812 18.44C167.812 30.344 156.804 34.568 146.692 40.584C147.844 40.328 149.124 40.2 150.532 40.2C163.204 40.2 169.86 50.696 169.86 71.176V85H162.052V67.976C162.052 50.44 157.7 41.48 149.124 41.48C145.028 41.48 142.596 42.76 136.58 48.264Z" fill="black"/>
<path d="M80.363 7.432L61.419 56.712H99.179L80.363 7.432ZM49.003 85L79.595 5.384L78.187 1.8H86.379L118.251 85H110.059L99.691 57.992H60.907L50.539 85H49.003Z" fill="black"/>
<path d="M8.31999 1.8L38.144 79.752L68.096 1.8H69.632L37.76 85H32L0.127991 1.8H8.31999Z" fill="black"/>
</svg>
