<svg width="1327" height="89" viewBox="0 0 1327 89" fill="none" xmlns="http://www.w3.org/2000/svg">
<path d="M1326.75 87H1308.57V1.62399H1326.75V87Z" fill="black"/>
<path d="M1295.44 87H1274.58L1257.81 56.408H1244.5V87H1226.32V1.62399H1266.26C1284.05 1.62399 1294.93 13.272 1294.93 29.144C1294.93 44.248 1285.46 52.312 1276.24 54.488L1295.44 87ZM1276.37 29.016C1276.37 21.848 1270.87 17.24 1263.57 17.24H1244.5V40.792H1263.57C1270.87 40.792 1276.37 36.184 1276.37 29.016Z" fill="black"/>
<path d="M1209.37 87H1191.2V1.62399H1209.37V87Z" fill="black"/>
<path d="M1094.98 44.376C1094.98 17.368 1115.46 0.216003 1140.42 0.216003C1158.08 0.216003 1169.22 8.79201 1175.74 18.904L1160.64 27.096C1156.67 21.08 1149.38 16.344 1140.42 16.344C1124.93 16.344 1113.67 28.248 1113.67 44.376C1113.67 60.504 1124.93 72.408 1140.42 72.408C1148.22 72.408 1155.14 69.208 1158.85 65.88V55.512H1136.06V39.896H1176.77V72.536C1168.07 82.264 1155.9 88.664 1140.42 88.664C1115.46 88.664 1094.98 71.256 1094.98 44.376Z" fill="black"/>
<path d="M1095.56 87H1075.72L1070.35 72.28H1032.2L1026.83 87H1006.86L1039.88 1.62399H1062.67L1095.56 87ZM1065.36 56.536L1051.28 17.368L1037.07 56.536H1065.36Z" fill="black"/>
<path d="M999.123 87H980.819V51.16H940.499V87H922.323V1.62399H940.499V35.16H980.819V1.62399H999.123V87Z" fill="black"/>
<path d="M885.839 87H867.535V17.624H842.575V1.62399H910.671V17.624H885.839V87Z" fill="black"/>
<path d="M830.989 87H813.453L772.749 29.656V87H754.573V1.62399H773.261L812.813 56.92V1.62399H830.989V87Z" fill="black"/>
<path d="M746.689 87H726.849L721.473 72.28H683.329L677.953 87H657.985L691.009 1.62399H713.793L746.689 87ZM716.481 56.536L702.401 17.368L688.193 56.536H716.481Z" fill="black"/>
<path d="M617.498 87H599.194V51.16H558.874V87H540.698V1.62399H558.874V35.16H599.194V1.62399H617.498V87Z" fill="black"/>
<path d="M504.214 87H485.91V17.624H460.95V1.62399H529.046V17.624H504.214V87Z" fill="black"/>
<path d="M449.249 87H431.073V1.62399H449.249V87Z" fill="black"/>
<path d="M414.248 87H395.944V51.16H355.624V87H337.448V1.62399H355.624V35.16H395.944V1.62399H414.248V87Z" fill="black"/>
<path d="M254.81 74.968L264.794 61.144C270.81 67.416 280.154 72.664 291.93 72.664C301.914 72.664 306.778 67.928 306.778 63.064C306.778 56.664 299.354 54.488 289.498 52.184C275.546 48.984 257.626 45.144 257.626 26.072C257.626 11.864 269.914 0.343994 290.01 0.343994C303.578 0.343994 314.842 4.43999 323.29 12.248L313.178 25.56C306.266 19.16 297.05 16.216 288.73 16.216C280.538 16.216 276.186 19.8 276.186 24.92C276.186 30.68 283.354 32.472 293.21 34.776C307.29 37.976 325.21 42.2 325.21 61.144C325.21 76.76 314.074 88.536 291.034 88.536C274.65 88.536 262.874 83.032 254.81 74.968Z" fill="black"/>
<path d="M247.568 87H226.704L209.936 56.408H196.624V87H178.448V1.62399H218.384C236.176 1.62399 247.056 13.272 247.056 29.144C247.056 44.248 237.584 52.312 228.368 54.488L247.568 87ZM228.496 29.016C228.496 21.848 222.992 17.24 215.696 17.24H196.624V40.792H215.696C222.992 40.792 228.496 36.184 228.496 29.016Z" fill="black"/>
<path d="M170.564 87H150.724L145.348 72.28H107.204L101.828 87H81.86L114.884 1.62399H137.668L170.564 87ZM140.356 56.536L126.276 17.368L112.068 56.536H140.356Z" fill="black"/>
<path d="M56.168 87H33.384L0.359985 1.62399H21.096L44.776 67.288L68.328 1.62399H89.064L56.168 87Z" fill="black"/>
</svg>
