<svg width="977" height="88" viewBox="0 0 977 88" fill="none" xmlns="http://www.w3.org/2000/svg">
<path fill-rule="evenodd" clip-rule="evenodd" d="M975.805 86V2.79999H968.125V86H975.805ZM976.805 87H967.125V1.79999H976.805V87Z" fill="black"/>
<path fill-rule="evenodd" clip-rule="evenodd" d="M922.055 4.07999H933.319C944.711 4.07999 951.367 9.58399 951.367 18.928C951.367 30.0825 944.241 35.2795 936.862 40.6611C931.526 44.5531 926.057 48.5416 923.055 54.95C922.682 55.7464 922.347 56.5803 922.055 57.456V4.07999ZM923.055 52.7843C926.296 47.1178 931.434 43.3757 936.269 39.8544C936.962 39.3498 937.649 38.8497 938.323 38.3492C944.878 33.4801 950.367 28.526 950.367 18.928C950.367 14.5125 948.806 11.1006 945.979 8.7718C943.126 6.42141 938.868 5.07999 933.319 5.07999H923.055V52.7843ZM953.927 68.976C953.927 51.44 949.575 42.48 940.999 42.48C936.903 42.48 934.471 43.76 928.455 49.264C924.615 53.36 922.055 58.608 922.055 66.16V86H914.375V2.79999H936.391C950.855 2.79999 959.687 9.45599 959.687 19.44C959.687 29.6536 951.583 34.2135 942.895 39.1025C942.219 39.4829 941.539 39.8654 940.859 40.2527C940.094 40.689 939.328 41.1314 938.567 41.584C939.368 41.406 940.231 41.2899 941.156 41.2356C941.561 41.2119 941.978 41.2 942.407 41.2C955.079 41.2 961.735 51.696 961.735 72.176V86H953.927V68.976ZM942.974 40.2068C943.084 40.1445 943.195 40.0823 943.306 40.02C946.962 37.9627 950.606 35.9122 953.553 33.493C957.727 30.0678 960.687 25.7755 960.687 19.44C960.687 14.1163 958.316 9.6598 954.05 6.56642C949.813 3.49435 943.762 1.79999 936.391 1.79999H913.375V87H923.055V66.16C923.055 58.8906 925.499 53.8907 929.158 49.9758C932.147 47.2428 934.173 45.6296 935.921 44.6885C937.622 43.7723 939.086 43.48 940.999 43.48C942.959 43.48 944.637 43.9885 946.069 44.977C947.509 45.9711 948.756 47.4892 949.78 49.5901C951.84 53.8177 952.927 60.2597 952.927 68.976V87H962.735V72.176C962.735 61.8575 961.063 53.8926 957.67 48.4771C954.331 43.1463 949.367 40.3613 942.974 40.2068Z" fill="black"/>
<path fill-rule="evenodd" clip-rule="evenodd" d="M909.305 86V2.79999H901.625V86H909.305ZM910.305 87H900.625V1.79999H910.305V87Z" fill="black"/>
<path fill-rule="evenodd" clip-rule="evenodd" d="M887.876 48.392H897.556V61.168C897.556 69.1019 894.11 75.7579 888.13 80.4056C882.17 85.0375 873.745 87.64 863.788 87.64C837.809 87.64 818.5 69.3168 818.5 44.4C818.5 21.2092 838.77 0.519989 861.612 0.519989C875.419 0.519989 888.133 7.75573 896.363 20.0352L896.747 20.6087L887.606 33.4682L887.021 31.5008C881.842 14.0692 870.981 4.18399 858.156 4.18399C842.372 4.18399 829.46 19.5429 829.46 39.408C829.46 64.2474 846.325 84.104 866.604 84.104C873.861 84.104 879.121 82.1987 882.581 78.5299C886.051 74.85 887.876 69.2219 887.876 61.424V48.392ZM887.98 31.216C887.86 30.8106 887.736 30.409 887.609 30.0113C882.22 13.0815 871.288 3.18399 858.156 3.18399C841.644 3.18399 828.46 19.184 828.46 39.408C828.46 64.624 845.612 85.104 866.604 85.104C881.452 85.104 888.876 77.296 888.876 61.424V49.392H896.556V61.168C896.556 76.4 883.372 86.64 863.788 86.64C838.316 86.64 819.5 68.72 819.5 44.4C819.5 21.744 839.34 1.51999 861.612 1.51999C875.052 1.51999 887.468 8.55999 895.532 20.592L887.98 31.216Z" fill="black"/>
<path fill-rule="evenodd" clip-rule="evenodd" d="M785.488 8.43199L804.304 57.712H766.544L785.488 8.43199ZM784.72 6.38399L783.312 2.79999H791.504L823.376 86H815.184L804.816 58.992H766.032L755.664 86H754.128L784.72 6.38399ZM766.719 59.992L756.351 87H752.672L783.647 6.38803L781.845 1.79999H792.192L824.83 87H814.497L804.129 59.992H766.719ZM785.485 11.2271L768 56.712H802.852L785.485 11.2271Z" fill="black"/>
<path fill-rule="evenodd" clip-rule="evenodd" d="M750.133 2.79999H742.453V41.968H698.933V2.79999H691.253V86H698.933V43.248H742.453V86H750.133V2.79999ZM741.453 44.248V87H751.133V1.79999H741.453V40.968H699.933V1.79999H690.253V87H699.933V44.248H741.453Z" fill="black"/>
<path fill-rule="evenodd" clip-rule="evenodd" d="M648.848 3.82401V85.744H656.528V3.82401H687.248V2.54401H618.128V3.82401H648.848ZM657.528 4.82401H688.248V1.54401H617.128V4.82401H647.848V86.744H657.528V4.82401Z" fill="black"/>
<path fill-rule="evenodd" clip-rule="evenodd" d="M565.513 2.79999H559.625V86H560.905V10.224L608.393 86H614.153V2.79999H612.873V78.32L565.513 2.79999ZM611.873 74.8431L566.066 1.79999H558.625V87H561.905V13.7029L607.84 87H615.153V1.79999H611.873V74.8431Z" fill="black"/>
<path fill-rule="evenodd" clip-rule="evenodd" d="M517.863 8.43199L536.679 57.712H498.919L517.863 8.43199ZM517.095 6.38399L515.687 2.79999H523.879L555.751 86H547.559L537.191 58.992H498.407L488.039 86H486.503L517.095 6.38399ZM499.094 59.992L488.726 87H485.047L516.022 6.38803L514.22 1.79999H524.567L557.205 87H546.872L536.504 59.992H499.094ZM517.86 11.2271L500.375 56.712H535.227L517.86 11.2271Z" fill="black"/>
<path fill-rule="evenodd" clip-rule="evenodd" d="M449.258 2.79999H441.578V41.968H398.058V2.79999H390.378V86H398.058V43.248H441.578V86H449.258V2.79999ZM440.578 44.248V87H450.258V1.79999H440.578V40.968H399.058V1.79999H389.378V87H399.058V44.248H440.578Z" fill="black"/>
<path fill-rule="evenodd" clip-rule="evenodd" d="M347.973 3.82401V85.744H355.653V3.82401H386.373V2.54401H317.253V3.82401H347.973ZM356.653 4.82401H387.373V1.54401H316.253V4.82401H346.973V86.744H356.653V4.82401Z" fill="black"/>
<path fill-rule="evenodd" clip-rule="evenodd" d="M313.305 86V2.79999H305.625V86H313.305ZM314.305 87H304.625V1.79999H314.305V87Z" fill="black"/>
<path fill-rule="evenodd" clip-rule="evenodd" d="M300.508 2.79999H292.828V41.968H249.308V2.79999H241.628V86H249.308V43.248H292.828V86H300.508V2.79999ZM291.828 44.248V87H301.508V1.79999H291.828V40.968H250.308V1.79999H240.628V87H250.308V44.248H291.828Z" fill="black"/>
<path fill-rule="evenodd" clip-rule="evenodd" d="M175.651 71.4456L183.682 63.729L184.35 64.6952C193.809 78.372 201.482 84.104 209.256 84.104C214.154 84.104 218.078 82.8633 220.753 80.7791C223.406 78.7131 224.896 75.7725 224.896 72.176C224.896 67.2414 222.395 63.0666 218.434 59.1644C214.611 55.3978 209.545 51.9975 204.328 48.4953C204.121 48.3564 203.914 48.2174 203.706 48.0782C198.315 44.4572 192.814 40.7116 188.671 36.401C184.511 32.0727 181.632 27.0854 181.632 20.976C181.632 9.35993 192.651 0.647995 206.44 0.647995C217.153 0.647995 228.306 6.45246 235.764 15.742L236.189 16.2719L230.667 25.9772L229.852 24.2111C223.772 11.0382 215.203 3.92799 206.184 3.92799C201.676 3.92799 198.151 5.10131 195.771 7.10152C193.412 9.0848 192.08 11.9609 192.08 15.6C192.08 21.1411 194.643 25.7379 198.641 29.9014C202.657 34.0836 208.035 37.7417 213.524 41.4085C213.767 41.571 214.01 41.7336 214.254 41.8962C219.462 45.3732 224.718 48.8821 228.717 52.8128C232.918 56.9423 235.856 61.6556 235.856 67.44C235.856 73.153 232.685 78.1649 227.708 81.7105C222.733 85.2548 215.899 87.384 208.36 87.384C194.752 87.384 184.348 82.3877 176.217 72.1582L175.651 71.4456ZM184.107 66.0945C193.325 79.2086 201.106 85.104 209.256 85.104C219.368 85.104 225.896 79.984 225.896 72.176C225.896 61.767 215.513 54.7984 204.921 47.6888C193.89 40.2855 182.632 32.7292 182.632 20.976C182.632 10.096 193 1.64799 206.44 1.64799C216.808 1.64799 227.688 7.28 234.984 16.368L230.76 23.792C230.588 23.4194 230.414 23.0513 230.238 22.6877C224.121 10.0631 215.515 2.92799 206.184 2.92799C196.84 2.92799 191.08 7.792 191.08 15.6C191.08 27.6263 202.494 35.2471 213.666 42.706C224.372 49.8543 234.856 56.8539 234.856 67.44C234.856 78.064 223.08 86.384 208.36 86.384C195.048 86.384 184.936 81.52 177 71.536L183.528 65.264C183.722 65.544 183.915 65.8208 184.107 66.0945Z" fill="black"/>
<path fill-rule="evenodd" clip-rule="evenodd" d="M132.18 4.07999H143.444C154.836 4.07999 161.492 9.58399 161.492 18.928C161.492 30.0825 154.366 35.2795 146.987 40.6611C141.651 44.5531 136.182 48.5416 133.18 54.95C132.807 55.7464 132.472 56.5803 132.18 57.456V4.07999ZM133.18 52.7843C136.421 47.1178 141.559 43.3757 146.394 39.8543C147.087 39.3498 147.774 38.8497 148.448 38.3492C155.003 33.4801 160.492 28.526 160.492 18.928C160.492 14.5125 158.931 11.1006 156.104 8.7718C153.251 6.42141 148.993 5.07999 143.444 5.07999H133.18V52.7843ZM164.052 68.976C164.052 51.44 159.7 42.48 151.124 42.48C147.028 42.48 144.596 43.76 138.58 49.264C134.74 53.36 132.18 58.608 132.18 66.16V86H124.5V2.79999H146.516C160.98 2.79999 169.812 9.45599 169.812 19.44C169.812 29.6536 161.708 34.2135 153.02 39.1025C152.344 39.4829 151.664 39.8654 150.984 40.2527C150.218 40.689 149.453 41.1314 148.692 41.584C149.493 41.406 150.356 41.2899 151.281 41.2356C151.686 41.2119 152.103 41.2 152.532 41.2C165.204 41.2 171.86 51.696 171.86 72.176V86H164.052V68.976ZM153.099 40.2068C153.209 40.1445 153.32 40.0823 153.431 40.0201C157.087 37.9627 160.731 35.9123 163.678 33.493C167.852 30.0678 170.812 25.7755 170.812 19.44C170.812 14.1163 168.441 9.6598 164.175 6.56642C159.938 3.49435 153.887 1.79999 146.516 1.79999H123.5V87H133.18V66.16C133.18 58.8905 135.624 53.8906 139.284 49.9757C142.272 47.2427 144.298 45.6296 146.046 44.6885C147.747 43.7723 149.211 43.48 151.124 43.48C153.084 43.48 154.762 43.9885 156.194 44.977C157.634 45.9711 158.881 47.4892 159.905 49.5901C161.965 53.8177 163.052 60.2597 163.052 68.976V87H172.86V72.176C172.86 61.8575 171.188 53.8926 167.795 48.4771C164.455 43.1463 159.492 40.3613 153.099 40.2068Z" fill="black"/>
<path fill-rule="evenodd" clip-rule="evenodd" d="M82.363 8.43199L101.179 57.712H63.419L82.363 8.43199ZM81.595 6.38399L80.187 2.79999H88.379L120.251 86H112.059L101.691 58.992H62.907L52.539 86H51.003L81.595 6.38399ZM63.5943 59.992L53.2263 87H49.5475L80.5222 6.38799L78.7198 1.79999H89.0668L121.705 87H111.372L101.004 59.992H63.5943ZM82.3598 11.2272L64.8748 56.712H99.7268L82.3598 11.2272Z" fill="black"/>
<path fill-rule="evenodd" clip-rule="evenodd" d="M10.32 2.79999H2.12801L34 86H39.76L71.632 2.79999H70.096L40.144 80.752L10.32 2.79999ZM40.146 77.9587L11.0081 1.79999H0.674072L33.3122 87H40.4478L73.086 1.79999H69.409L40.146 77.9587Z" fill="black"/>
</svg>
