<svg width="327" height="96" viewBox="0 0 327 96" fill="none" xmlns="http://www.w3.org/2000/svg">
<path fill-rule="evenodd" clip-rule="evenodd" d="M322.152 27.272C320.872 26.568 319.368 26.216 317.64 26.216C315.4 26.216 313.352 26.856 311.496 28.136C309.64 29.416 308.04 31.016 306.696 32.936C305.936 34.0384 305.277 35.1408 304.72 36.2432C304.339 36.9968 304.006 37.7504 303.72 38.504V26.504C303.395 26.6074 303.062 26.7056 302.72 26.7987C301.58 27.1093 300.345 27.3631 299.016 27.56C297.352 27.752 295.592 27.848 293.736 27.848C292.13 27.848 290.479 27.7808 288.784 27.6465C288.452 27.6203 288.119 27.5914 287.784 27.56V29.576C290.6 29.576 292.52 30.28 293.544 31.688C294.568 33.032 295.08 35.144 295.08 38.024V68.072C295.08 70.76 294.504 72.584 293.352 73.544C292.264 74.504 290.408 74.984 287.784 74.984V77C288.08 76.9826 288.413 76.9652 288.784 76.9479C289.779 76.9012 291.046 76.8546 292.584 76.808C294.76 76.68 296.936 76.616 299.112 76.616C302.12 76.616 304.968 76.68 307.656 76.808C309.784 76.8587 311.53 76.9093 312.896 76.96C313.256 76.9733 313.589 76.9867 313.896 77V74.984C310.76 74.984 308.264 74.472 306.408 73.448C304.616 72.36 303.72 70.248 303.72 67.112V46.76C303.72 44.968 304.04 43.048 304.68 41C305.32 38.888 306.216 36.904 307.368 35.048C308.52 33.192 309.928 31.688 311.592 30.536C313.256 29.32 315.08 28.712 317.064 28.712C317.54 28.712 317.953 28.8023 318.302 28.9829C318.611 29.1423 318.87 29.372 319.08 29.672C318.833 29.8242 318.591 29.9934 318.355 30.1796C317.797 30.6196 317.271 31.1544 316.776 31.784C316.136 32.616 315.816 33.64 315.816 34.856C315.816 36.456 316.328 37.704 317.352 38.6C318.376 39.432 319.56 39.848 320.904 39.848C322.568 39.848 323.88 39.24 324.84 38.024C325.864 36.808 326.376 35.4 326.376 33.8C326.376 32.392 325.992 31.144 325.224 30.056C324.52 28.904 323.496 27.976 322.152 27.272ZM317.566 32.397C317.083 33.0269 316.816 33.8259 316.816 34.856C316.816 36.2153 317.237 37.164 317.997 37.8355C318.836 38.512 319.791 38.848 320.904 38.848C322.288 38.848 323.3 38.3604 324.055 37.4044L324.065 37.392L324.075 37.3799C324.946 36.3454 325.376 35.166 325.376 33.8C325.376 32.586 325.049 31.542 324.407 30.6327L324.388 30.6057L324.371 30.5775C323.772 29.5984 322.892 28.7885 321.688 28.1578L321.679 28.1531L321.67 28.1482C320.563 27.5391 319.23 27.216 317.64 27.216C315.604 27.216 313.754 27.7935 312.064 28.9592C311.8 29.1413 311.541 29.3302 311.288 29.5261C313.041 28.3239 314.974 27.712 317.064 27.712C318.231 27.712 319.234 28.1489 319.899 29.0985L320.508 29.9677L319.604 30.5237C318.889 30.9636 318.208 31.5811 317.566 32.397ZM304.379 38.808L302.72 38.504V27.8338C301.611 28.1241 300.425 28.3622 299.163 28.5492L299.147 28.5516L299.131 28.5534C297.425 28.7502 295.626 28.848 293.736 28.848C292.498 28.848 291.235 28.8088 289.948 28.7305C291.859 29.0277 293.38 29.7693 294.345 31.0898C295.563 32.6932 296.08 35.0691 296.08 38.024V68.072C296.08 70.8288 295.503 73.0451 294.003 74.3033C292.916 75.2565 291.329 75.755 289.38 75.9204C290.264 75.8831 291.318 75.846 292.539 75.8089C294.73 75.6803 296.921 75.616 299.112 75.616C302.13 75.616 304.989 75.6801 307.691 75.8086C309.498 75.8516 311.032 75.8947 312.293 75.9379C309.77 75.7874 307.632 75.2657 305.925 74.3236L305.907 74.3136L305.889 74.3028C303.667 72.954 302.72 70.4106 302.72 67.112V46.76C302.72 44.85 303.061 42.8296 303.725 40.7045C303.92 40.0611 304.138 39.4289 304.379 38.808Z" fill="black"/>
<path fill-rule="evenodd" clip-rule="evenodd" d="M275.702 31.4C272.565 27.944 268.181 26.216 262.549 26.216C258.198 26.216 254.389 27.336 251.125 29.576C247.862 31.752 245.333 34.888 243.542 38.984C241.75 43.016 240.854 47.848 240.854 53.48C240.854 58.344 241.717 62.664 243.445 66.44C245.237 70.152 247.766 73.064 251.03 75.176C254.358 77.288 258.326 78.344 262.934 78.344C266.134 78.344 268.949 77.736 271.382 76.52C273.814 75.24 275.829 73.608 277.43 71.624C279.03 69.64 280.181 67.592 280.885 65.48L278.966 64.712C278.966 64.7121 278.966 64.7119 278.966 64.712C277.878 67.0799 276.597 68.9681 275.125 70.376C273.654 71.784 272.053 72.808 270.326 73.448C268.598 74.024 266.773 74.312 264.854 74.312C262.422 74.312 260.053 73.512 257.75 71.912C255.509 70.248 253.685 67.848 252.277 64.712C250.87 61.576 250.165 57.832 250.165 53.48C250.165 52.328 250.198 51.176 250.262 50.024C250.294 49.4364 250.335 48.8737 250.384 48.336C250.416 47.9925 250.451 47.6591 250.489 47.336H280.501C280.501 46.9985 280.498 46.6652 280.491 46.336C280.349 39.6124 278.752 34.6337 275.702 31.4ZM279.491 46.336C279.348 39.7513 277.784 35.0644 274.974 32.0862L274.967 32.0792L274.961 32.072C272.353 29.1982 268.794 27.5734 264.183 27.2686C265.755 27.6448 267.106 28.4849 268.204 29.7878C269.742 31.5397 270.823 33.8416 271.489 36.6368C272.155 39.3644 272.416 42.3388 272.285 45.5528L272.253 46.336H279.491ZM271.285 45.512C271.414 42.376 271.158 39.496 270.518 36.872C269.878 34.184 268.854 32.04 267.445 30.44C266.102 28.84 264.341 28.04 262.165 28.04C259.221 28.04 256.598 29.512 254.293 32.456C252.289 35.0907 251.002 39.1094 250.432 44.512C250.398 44.8402 250.366 45.1736 250.337 45.512H271.285ZM249.427 44.512C250 38.9712 251.323 34.7093 253.498 31.8505L253.506 31.8396C255.272 29.5828 257.276 28.0765 259.513 27.4181C256.6 27.8194 253.999 28.8171 251.691 30.4005L251.68 30.4081C248.597 32.4636 246.184 35.439 244.458 39.3848L244.455 39.3902C242.734 43.2641 241.854 47.9507 241.854 53.48C241.854 58.2208 242.695 62.3919 244.351 66.0146C246.067 69.5657 248.473 72.3293 251.568 74.3336C254.71 76.3265 258.484 77.344 262.934 77.344C266.001 77.344 268.656 76.7625 270.925 75.6304C273.241 74.4096 275.145 72.8636 276.651 70.9963C277.958 69.3756 278.941 67.726 279.613 66.0479L279.462 65.9875C278.423 68.0519 277.212 69.7637 275.817 71.0986C274.256 72.5911 272.542 73.6935 270.673 74.3858L270.657 74.3915L270.642 74.3967C268.806 75.0085 266.875 75.312 264.854 75.312C262.188 75.312 259.624 74.4313 257.179 72.7334L257.166 72.7243L257.153 72.7148C254.748 70.9278 252.827 68.3777 251.365 65.1216C249.886 61.8274 249.165 57.9369 249.165 53.48C249.165 52.3095 249.198 51.139 249.263 49.9685C249.294 49.4032 249.333 48.8589 249.38 48.336H245.665L245.463 44.512H249.427Z" fill="black"/>
<path fill-rule="evenodd" clip-rule="evenodd" d="M197.504 93.992C200.512 94.696 203.712 95.048 207.104 95.048C212.736 95.048 217.44 94.216 221.216 92.552C225.056 90.952 227.936 88.84 229.856 86.216C231.776 83.592 232.736 80.776 232.736 77.768C232.736 75.08 232.032 72.904 230.624 71.24C229.216 69.576 227.36 68.36 225.056 67.592C222.816 66.824 220.352 66.44 217.664 66.44H205.664C202.592 66.44 201.056 65.416 201.056 63.368C201.056 61.768 201.856 60.392 203.456 59.24C204.226 58.6548 205.063 58.0771 205.966 57.5067C206.474 57.1861 207.003 56.8679 207.553 56.552C207.563 56.552 207.574 56.552 207.584 56.552C208.252 56.552 208.905 56.5297 209.542 56.4851C209.624 56.4794 209.705 56.4733 209.786 56.4668C212.106 56.2825 214.22 55.7989 216.128 55.016C218.688 53.928 220.704 52.264 222.176 50.024C223.648 47.784 224.384 44.904 224.384 41.384C224.384 38.3861 223.85 35.8525 222.783 33.7831C222.607 33.4428 222.417 33.1152 222.213 32.8C222.242 32.7538 222.271 32.7078 222.301 32.6621C222.47 32.3997 222.641 32.147 222.816 31.904C223.375 31.124 223.962 30.444 224.576 29.864C225.251 29.1893 226.189 28.5366 227.39 27.9059C227.791 27.6953 228.222 27.4872 228.682 27.2816C228.501 27.7418 228.346 28.1835 228.216 28.6068C227.819 29.9031 227.662 31.0262 227.744 31.976C227.872 33.448 228.352 34.536 229.184 35.24C230.016 35.88 230.912 36.2 231.872 36.2C232.96 36.2 234.016 35.816 235.04 35.048C236.128 34.216 236.672 32.808 236.672 30.824C236.672 28.968 236.16 27.592 235.136 26.696C234.112 25.736 232.768 25.256 231.104 25.256C230.569 25.256 230.038 25.2985 229.513 25.3836C229.44 25.3954 229.367 25.4081 229.294 25.4216C228.955 25.4843 228.617 25.5648 228.282 25.6631C226.917 26.0637 225.586 26.76 224.288 27.752C223.232 28.5594 222.327 29.4271 221.573 30.3551C221.356 30.6211 221.153 30.892 220.961 31.1679C220.733 30.9154 220.496 30.6733 220.25 30.4416C219.083 29.345 217.71 28.4805 216.128 27.848C213.632 26.76 210.784 26.216 207.584 26.216C204.448 26.216 201.6 26.76 199.04 27.848C196.48 28.872 194.464 30.504 192.992 32.744C191.52 34.984 190.784 37.864 190.784 41.384C190.784 44.904 191.52 47.784 192.992 50.024C194.464 52.264 196.48 53.928 199.04 55.016C200.292 55.5168 201.613 55.8952 203.003 56.1511C203.546 56.2511 204.1 56.3323 204.664 56.3949C204.146 56.6631 203.652 56.9308 203.183 57.198C200.898 58.4991 199.197 59.7878 198.08 61.064C196.288 63.048 195.392 65.128 195.392 67.304C195.392 69.416 196 70.984 197.216 72.008C198.432 73.032 200 73.704 201.92 74.024C203.84 74.344 205.824 74.504 207.872 74.504H214.976C219.392 74.504 222.336 75.208 223.808 76.616C225.344 77.96 226.112 79.688 226.112 81.8C226.112 84.616 225.216 86.888 223.424 88.616C221.632 90.344 219.36 91.56 216.608 92.264C213.856 93.032 211.04 93.416 208.16 93.416C203.808 93.416 200.256 92.616 197.504 91.016C194.816 89.48 193.472 87.24 193.472 84.296C193.472 82.632 193.888 81.128 194.72 79.784C195.433 78.6334 196.356 77.8111 197.49 77.3172C197.681 77.2342 197.878 77.1605 198.08 77.096L197.504 75.56C194.432 76.392 192 77.608 190.208 79.208C188.416 80.808 187.52 82.728 187.52 84.968C187.52 87.272 188.416 89.16 190.208 90.632C192.064 92.168 194.496 93.288 197.504 93.992ZM195.785 77.1505C193.76 77.8904 192.132 78.8309 190.874 79.9539C189.277 81.3797 188.52 83.0353 188.52 84.968C188.52 86.9705 189.28 88.5758 190.843 89.8593L190.846 89.8616C192.554 91.2753 194.833 92.3399 197.732 93.0183C199.029 93.3219 200.365 93.5586 201.739 93.7281C199.987 93.3096 198.407 92.697 197.005 91.8824C194.027 90.1797 192.472 87.6199 192.472 84.296C192.472 82.4563 192.935 80.7683 193.87 79.2576C194.398 78.405 195.037 77.6993 195.785 77.1505ZM221.471 91.3534C224.863 89.8437 227.367 87.9241 229.049 85.6255C230.855 83.1582 231.736 80.5462 231.736 77.768C231.736 75.2594 231.083 73.3301 229.861 71.8859C228.585 70.3775 226.89 69.2575 224.74 68.5407L224.732 68.538C222.609 67.8102 220.257 67.44 217.664 67.44H205.664C204.049 67.44 202.662 67.1765 201.654 66.5041C200.573 65.7839 200.056 64.6833 200.056 63.368C200.056 61.6345 200.827 60.1616 202.203 58.9587C200.732 59.9067 199.614 60.8295 198.833 61.7225L198.828 61.7284L198.822 61.7343C197.157 63.5785 196.392 65.4291 196.392 67.304C196.392 69.2241 196.939 70.4668 197.86 71.2431C198.911 72.1282 200.302 72.7405 202.085 73.0376C203.948 73.3481 205.876 73.504 207.872 73.504H214.976C217.23 73.504 219.155 73.683 220.729 74.0594C222.286 74.4318 223.572 75.0142 224.483 75.8776C226.234 77.417 227.112 79.4184 227.112 81.8C227.112 84.8485 226.132 87.3939 224.118 89.3358C223.32 90.1054 222.437 90.7774 221.471 91.3534ZM210.408 55.4041C212.358 55.1918 214.135 54.7523 215.743 54.093C218.126 53.0791 219.982 51.5417 221.341 49.4748C222.677 47.4418 223.384 44.769 223.384 41.384C223.384 38.8031 222.973 36.6363 222.185 34.8513L221.871 35.4371L218.367 34.0743L218.756 33.1312C219.018 32.4949 219.329 31.881 219.689 31.2893C218.589 30.2229 217.281 29.3861 215.757 28.7765L215.743 28.7708L215.729 28.7647C214.092 28.0513 212.281 27.5803 210.29 27.3602C211.801 27.8646 213.068 28.8265 214.061 30.2419C215.671 32.4447 216.36 36.2553 216.36 41.384C216.36 46.5127 215.671 50.3233 214.061 52.5261C213.087 53.9149 211.848 54.8672 210.375 55.379L210.408 55.4041ZM209.374 54.6285C210.963 54.2586 212.254 53.3638 213.248 51.944C214.656 50.024 215.36 46.504 215.36 41.384C215.36 36.264 214.656 32.744 213.248 30.824C211.904 28.904 210.016 27.944 207.584 27.944C205.216 27.944 203.328 28.904 201.92 30.824C200.512 32.744 199.808 36.264 199.808 41.384C199.808 46.504 200.512 50.024 201.92 51.944C202.984 53.3949 204.322 54.2975 205.934 54.652C206.456 54.7667 207.006 54.824 207.584 54.824C207.713 54.824 207.839 54.8213 207.965 54.816C207.968 54.8158 207.971 54.8157 207.975 54.8156C208.464 54.7941 208.931 54.7318 209.374 54.6285ZM204.615 55.2968C203.247 54.7679 202.073 53.8437 201.114 52.5354C199.499 50.334 198.808 46.5199 198.808 41.384C198.808 36.2481 199.499 32.434 201.114 30.2326C202.145 28.8269 203.423 27.8646 204.923 27.3597C202.948 27.5796 201.119 28.0511 199.431 28.7683L199.422 28.7725L199.412 28.7765C197.036 29.7268 195.184 31.2293 193.828 33.2932C192.492 35.3262 191.784 37.999 191.784 41.384C191.784 44.769 192.492 47.4418 193.828 49.4748C195.186 51.5408 197.041 53.0777 199.422 54.0916C200.985 54.7157 202.669 55.142 204.478 55.3662C204.523 55.3431 204.569 55.3199 204.615 55.2968ZM229.467 28.0294C228.873 29.6403 228.656 30.9165 228.741 31.8894C228.853 33.1812 229.255 33.9805 229.813 34.4621C230.482 34.9706 231.161 35.2 231.872 35.2C232.706 35.2 233.555 34.9108 234.436 34.251C235.178 33.6816 235.672 32.64 235.672 30.824C235.672 29.1464 235.214 28.0926 234.478 27.4486L234.465 27.4373L234.452 27.4255C234.078 27.0751 233.645 26.7979 233.141 26.6016L230.692 27.5345C230.261 27.699 229.852 27.864 229.467 28.0294Z" fill="black"/>
<path fill-rule="evenodd" clip-rule="evenodd" d="M159.435 56.1498C159.031 56.1619 158.623 56.168 158.211 56.168C157.747 56.168 157.291 56.1587 156.843 56.1402C152.964 55.9798 149.676 55.1251 146.979 53.576C143.971 51.848 142.467 49.064 142.467 45.224C142.467 42.92 143.043 40.648 144.195 38.408C145.347 36.104 147.011 34.024 149.187 32.168C151.427 30.248 154.115 28.744 157.251 27.656C160.387 26.504 163.939 25.928 167.907 25.928C170.39 25.928 172.647 26.1935 174.678 26.7244C175.022 26.8141 175.358 26.9113 175.688 27.0162C175.89 26.7249 176.101 26.4433 176.322 26.1712C177.008 25.3255 177.787 24.5724 178.659 23.912C180.117 22.7972 181.661 22.0559 183.291 21.6879C183.79 21.5753 184.296 21.4977 184.811 21.455C185.126 21.429 185.443 21.416 185.763 21.416C188.003 21.416 189.667 22.024 190.755 23.24C191.843 24.456 192.387 25.96 192.387 27.752C192.387 29.608 191.907 31.048 190.947 32.072C189.987 33.096 188.899 33.608 187.683 33.608C186.659 33.608 185.667 33.192 184.707 32.36C183.811 31.528 183.235 30.28 182.979 28.616C182.801 27.4621 182.932 26.0928 183.37 24.5081C183.468 24.1535 183.581 23.7882 183.71 23.4121C183.729 23.3562 183.748 23.3001 183.768 23.2438C183.704 23.2703 183.64 23.297 183.576 23.3239C183.214 23.4765 182.867 23.6348 182.534 23.7988C181.21 24.4507 180.11 25.1925 179.235 26.024C178.927 26.3167 178.63 26.6355 178.344 26.9801C178.131 27.2372 177.924 27.5088 177.723 27.7948C178.033 27.9355 178.336 28.0843 178.633 28.2409C178.804 28.3313 178.972 28.4243 179.139 28.52C182.147 30.184 183.651 32.968 183.651 36.872C183.651 39.944 182.595 42.984 180.483 45.992C178.435 48.936 175.491 51.368 171.651 53.288C170.42 53.914 169.114 54.438 167.733 54.8599C167.715 54.8654 167.697 54.8709 167.679 54.8764C167.648 54.8858 167.616 54.8953 167.585 54.9046C166.495 55.2307 165.358 55.4937 164.175 55.6935C163.918 55.7951 163.667 55.8959 163.421 55.9958C162.504 56.3682 161.667 56.7294 160.908 57.0793C160.873 57.0956 160.838 57.1118 160.803 57.128C159.075 57.896 157.763 58.6 156.867 59.24C155.971 59.88 155.523 60.52 155.523 61.16C155.523 61.672 155.811 62.12 156.387 62.504C157.027 62.824 157.859 63.176 158.883 63.56L167.619 66.824C169.347 67.464 171.043 68.264 172.707 69.224C174.371 70.184 175.747 71.432 176.835 72.968C177.987 74.44 178.563 76.296 178.563 78.536C178.563 81.416 177.635 83.88 175.779 85.928C173.923 88.04 171.459 89.768 168.387 91.112C165.379 92.456 162.115 93.448 158.595 94.088C155.139 94.728 151.779 95.048 148.515 95.048C145.315 95.048 142.275 94.728 139.395 94.088C136.515 93.512 134.179 92.68 132.387 91.592C130.531 90.504 129.603 89.192 129.603 87.656C129.603 86.312 130.307 85.16 131.715 84.2C133.123 83.304 134.915 82.6 137.091 82.088C139.203 81.576 141.379 81.224 143.619 81.032C145.923 80.84 147.971 80.808 149.763 80.936L149.859 82.376C147.811 83.528 146.339 84.648 145.443 85.736C144.611 86.888 144.195 88.008 144.195 89.096C144.195 90.44 144.739 91.496 145.827 92.264C146.915 93.032 148.483 93.416 150.531 93.416C152.067 93.416 153.699 93.192 155.427 92.744C157.155 92.36 158.755 91.752 160.227 90.92C161.763 90.152 162.979 89.224 163.875 88.136C164.835 87.112 165.315 85.96 165.315 84.68C165.315 83.336 164.771 82.376 163.683 81.8C162.659 81.288 161.347 80.808 159.747 80.36L146.691 76.232C145.091 75.72 143.651 74.92 142.371 73.832C141.155 72.68 140.547 71.272 140.547 69.608C140.547 67.56 141.507 65.768 143.427 64.232C145.347 62.632 147.907 61.128 151.107 59.72C152.985 58.8732 154.958 58.0158 157.026 57.1478C157.418 56.9835 157.813 56.8188 158.211 56.6537C158.615 56.4861 159.023 56.3181 159.435 56.1498ZM155.929 58.6978C154.404 59.3486 152.934 59.9933 151.518 60.6316L151.51 60.6353C148.364 62.0194 145.893 63.4786 144.067 65.0002L144.06 65.0066L144.052 65.0129C142.316 66.4014 141.547 67.9256 141.547 69.608C141.547 70.9866 142.034 72.1271 143.04 73.0878C144.213 74.0809 145.529 74.8101 146.994 75.2791C146.995 75.2792 146.995 75.2794 146.996 75.2796L160.033 79.4015C161.662 79.8585 163.034 80.3573 164.13 80.9056L164.141 80.9108L164.151 80.9162C164.843 81.2828 165.4 81.7943 165.777 82.459C166.151 83.1189 166.315 83.8727 166.315 84.68C166.315 86.2293 165.728 87.6117 164.627 88.7963C163.631 89.9966 162.31 90.9933 160.697 91.803C159.576 92.4347 158.387 92.9426 157.132 93.3278C157.557 93.2584 157.984 93.1841 158.413 93.1047L158.416 93.1041C161.864 92.4773 165.05 91.5076 167.979 90.199L167.986 90.1958C170.95 88.8994 173.285 87.2508 175.028 85.2679L175.033 85.2621L175.038 85.2565C176.72 83.4007 177.563 81.1792 177.563 78.536C177.563 76.4736 177.036 74.8474 176.048 73.5843L176.033 73.5655L176.019 73.546C175.016 72.1302 173.749 70.9796 172.207 70.0902C170.59 69.1571 168.945 68.3814 167.272 67.7617L167.269 67.7607L158.533 64.4967L158.532 64.4963C157.49 64.1057 156.623 63.7399 155.94 63.3984L155.884 63.3706L155.832 63.336C155.086 62.8386 154.523 62.1181 154.523 61.16C154.523 60.1643 155.127 59.3507 155.929 58.6978ZM147.326 94.0328C144.629 93.9632 142.058 93.6554 139.612 93.1118L139.602 93.1095L139.591 93.1074C136.783 92.5458 134.567 91.7459 132.906 90.7372L132.899 90.7332L132.893 90.7293C131.206 89.7407 130.603 88.703 130.603 87.656C130.603 86.7344 131.058 85.8622 132.265 85.0351C133.551 84.2198 135.226 83.5542 137.32 83.0614L137.327 83.0598C139.387 82.5604 141.512 82.2164 143.702 82.0285C145.554 81.8742 147.225 81.8262 148.717 81.8811C146.942 82.9363 145.573 84.0047 144.671 85.1003L144.651 85.1248L144.632 85.1505C143.715 86.421 143.195 87.7417 143.195 89.096C143.195 90.7613 143.894 92.1235 145.25 93.081C145.849 93.5033 146.545 93.8163 147.326 94.0328ZM159.192 55.156C158.868 55.164 158.541 55.168 158.211 55.168C153.856 55.168 150.296 54.328 147.477 52.7089C144.818 51.1812 143.467 48.7523 143.467 45.224C143.467 43.0935 143.998 40.9773 145.084 38.8654L145.089 38.8552C146.175 36.6837 147.751 34.7074 149.836 32.9288L149.838 32.9272C151.972 31.0983 154.546 29.6528 157.579 28.6007L157.587 28.5978L157.596 28.5947C159.492 27.8981 161.557 27.4173 163.795 27.1571C163.388 27.4125 163.008 27.7499 162.658 28.1323L162.655 28.1353C161.923 28.9407 161.233 30.0615 160.572 31.4501L160.564 31.4679L160.556 31.4861C159.955 32.889 159.427 34.5085 158.97 36.338C158.509 38.1148 158.15 40.0777 157.89 42.2237C157.629 44.3787 157.499 46.627 157.499 48.968C157.499 51.0683 157.62 52.6624 157.934 53.6042L157.946 53.6389L157.96 53.6726C158.163 54.1592 158.449 54.6054 158.858 54.9329C158.965 55.0181 159.076 55.0925 159.192 55.156ZM166.631 26.9488C166.843 27.0636 167.041 27.2135 167.218 27.4014C167.669 27.8793 167.908 28.5142 168.024 29.186C168.296 30.3541 168.427 31.6382 168.427 33.032C168.427 35.8262 168.232 38.5279 167.842 41.1362C167.515 43.7434 166.991 46.1092 166.264 48.2278C165.604 50.2723 164.796 51.9747 163.819 53.3011C163.638 53.5516 163.448 53.786 163.249 54.0011L167.391 53.4488L167.497 53.8863C168.805 53.4834 170.038 52.9864 171.198 52.3966L171.204 52.3935C174.924 50.5337 177.727 48.2029 179.662 45.4209L179.665 45.4174C181.682 42.5439 182.651 39.7006 182.651 36.872C182.651 33.272 181.296 30.8558 178.655 29.395L178.648 29.3911L178.641 29.3871C178.456 29.2808 178.268 29.1779 178.076 29.0784C177.653 29.7685 177.258 30.5434 176.892 31.4065L176.531 32.2567L172.649 30.9628L173.021 29.988C173.34 29.1503 173.71 28.3598 174.131 27.6174C172.272 27.1607 170.199 26.928 167.907 26.928C167.476 26.928 167.051 26.935 166.631 26.9488ZM175.293 29.7358L175.429 29.7813C175.682 29.2473 175.95 28.7406 176.234 28.2617C176.19 28.2453 176.146 28.2291 176.102 28.2131C175.807 28.6939 175.538 29.2014 175.293 29.7358ZM177.319 26.5367C177.344 26.5464 177.368 26.5562 177.392 26.566C177.757 26.1064 178.141 25.6837 178.546 25.299C178.569 25.2773 178.592 25.2557 178.615 25.2341C178.152 25.6356 177.72 26.0696 177.319 26.5367ZM185.365 22.4234L185.968 23.4791L184.863 23.8894C184.763 23.9265 184.665 23.9639 184.567 24.0017C183.964 25.8462 183.792 27.3219 183.967 28.4639C184.2 29.979 184.703 30.9851 185.375 31.6158C186.194 32.3211 186.957 32.608 187.683 32.608C188.579 32.608 189.415 32.2445 190.217 31.388C190.954 30.6027 191.387 29.4379 191.387 27.752C191.387 26.1799 190.917 24.9209 190.01 23.9068C189.174 22.9731 187.829 22.416 185.763 22.416C185.63 22.416 185.497 22.4185 185.365 22.4234ZM163.011 52.712C162.179 53.864 161.283 54.44 160.323 54.44C159.683 54.44 159.203 54.056 158.883 53.288C158.627 52.52 158.499 51.08 158.499 48.968C158.499 46.664 158.627 44.456 158.883 42.344C159.139 40.232 159.491 38.312 159.939 36.584C160.387 34.792 160.899 33.224 161.475 31.88C162.115 30.536 162.755 29.512 163.395 28.808C164.099 28.04 164.771 27.656 165.411 27.656C166.307 27.656 166.851 28.232 167.043 29.384C167.299 30.472 167.427 31.688 167.427 33.032C167.427 35.784 167.235 38.44 166.851 41C166.531 43.56 166.019 45.864 165.315 47.912C164.675 49.896 163.907 51.496 163.011 52.712Z" fill="black"/>
<path fill-rule="evenodd" clip-rule="evenodd" d="M116.102 30.536C117.574 28.68 118.854 27.752 119.941 27.752C120.389 27.752 120.773 28.072 121.094 28.712C121.413 29.352 121.574 30.888 121.574 33.32C121.574 37.16 121.158 41.128 120.326 45.224C119.493 49.256 118.406 53.128 117.061 56.84C115.781 60.552 114.374 63.88 112.837 66.824C111.365 69.768 109.893 72.104 108.422 73.832C107.014 75.56 105.798 76.424 104.773 76.424C104.133 76.424 103.654 76.04 103.333 75.272C103.077 74.44 102.949 73.032 102.949 71.048C102.949 67.464 103.333 63.688 104.102 59.72C104.934 55.752 105.99 51.88 107.27 48.104C108.613 44.328 110.053 40.904 111.59 37.832C113.126 34.76 114.63 32.328 116.102 30.536ZM115.323 29.908C116.089 28.9434 116.84 28.1741 117.579 27.6384C118.083 27.2729 118.615 26.9924 119.166 26.8519C115.179 26.9793 111.603 27.72 108.426 29.0576L108.417 29.0611C104.945 30.4872 101.917 32.4353 99.3235 34.904C96.7732 37.3929 94.66 40.1906 92.9814 43.2992L92.9774 43.3066C91.2892 46.3703 90.0418 49.5219 89.2316 52.7625C88.4167 56.0221 88.0135 59.1083 88.0135 62.024C88.0135 67.086 89.3973 70.8262 92.0293 73.4018C94.7277 75.9801 98.698 77.344 104.102 77.344C104.118 77.344 104.134 77.344 104.15 77.344C103.848 77.2633 103.564 77.1214 103.309 76.9169C102.899 76.5894 102.613 76.1432 102.41 75.6566L102.392 75.6121L102.378 75.5661C102.074 74.5781 101.949 73.0374 101.949 71.048C101.949 67.3928 102.341 63.5528 103.12 59.53L103.121 59.5224L103.123 59.5148C103.963 55.5082 105.029 51.5975 106.322 47.783L106.325 47.7758L106.327 47.7687C107.683 43.9606 109.138 40.4985 110.695 37.3848C112.248 34.2783 113.789 31.7774 115.323 29.908ZM105.56 77.3182C109.462 77.1785 112.94 76.471 116.005 75.2128C119.546 73.7216 122.573 71.7411 125.099 69.2762L125.108 69.2678C127.723 66.7769 129.867 64.011 131.543 60.9695C133.233 57.8396 134.481 54.6546 135.291 51.4135C136.106 48.1539 136.51 45.0677 136.51 42.152C136.51 37.0941 135.096 33.3555 132.402 30.7786L132.394 30.7711C129.775 28.21 125.866 26.8446 120.496 26.8321C121.204 27.0455 121.682 27.6535 121.988 28.2648C122.235 28.7583 122.367 29.4589 122.448 30.2404C122.533 31.0565 122.574 32.0866 122.574 33.32C122.574 37.2324 122.15 41.2673 121.305 45.4231L121.305 45.4261C120.464 49.5007 119.364 53.4168 118.004 57.1738C116.713 60.9183 115.288 64.2878 113.728 67.279C112.238 70.2578 110.728 72.6644 109.19 74.4721C108.457 75.3711 107.738 76.0898 107.033 76.5912C106.565 76.9236 106.071 77.1823 105.56 77.3182ZM132.422 61.448C134.15 58.248 135.43 54.984 136.262 51.656C137.094 48.328 137.51 45.16 137.51 42.152C137.51 36.904 136.038 32.872 133.094 30.056C130.214 27.24 125.99 25.832 120.421 25.832C115.814 25.832 111.686 26.6 108.038 28.136C104.454 29.608 101.318 31.624 98.6295 34.184C96.0055 36.744 93.8295 39.624 92.1015 42.824C90.3735 45.96 89.0935 49.192 88.2615 52.52C87.4295 55.848 87.0135 59.016 87.0135 62.024C87.0135 67.272 88.4535 71.304 91.3335 74.12C94.2775 76.936 98.5335 78.344 104.102 78.344C108.71 78.344 112.805 77.608 116.389 76.136C120.038 74.6 123.174 72.552 125.798 69.992C128.486 67.432 130.693 64.584 132.422 61.448Z" fill="black"/>
<path fill-rule="evenodd" clip-rule="evenodd" d="M71.3265 68.56L71.3279 68.5551L91.0511 2.1882C87.7818 3.15915 84.3993 3.94477 80.9039 4.54554L80.8913 4.5477C76.9849 5.16776 72.5325 5.51887 67.5388 5.60542L67.5181 5.66746C68.5449 5.72365 69.4463 5.84782 70.2122 6.04871C71.2885 6.33101 72.2205 6.79739 72.7985 7.56799C73.8624 8.98659 73.8126 10.9968 73.1499 13.2502L73.1482 13.2559L58.4602 62.1199L58.4597 62.1214C57.6475 64.808 57.2905 67.0952 57.35 69.0008C57.4099 70.9178 57.8261 72.4691 58.5503 73.6986C59.2764 74.8678 60.2764 75.7599 61.5747 76.3824C62.9537 77.0129 64.5959 77.344 66.5265 77.344C67.9514 77.344 69.4871 77.1065 71.1384 76.6172C72.6996 76.1546 74.2013 75.2802 75.6428 73.9588L75.6503 73.952L75.6579 73.9453C76.6943 73.0332 77.6099 71.7797 78.3867 70.1532C78.2827 70.3553 78.1784 70.5476 78.0738 70.7299C77.5491 71.6438 76.9676 72.3931 76.2972 72.84L76.2774 72.8532L76.257 72.8655C75.7606 73.1633 75.3232 73.4013 74.9529 73.5679C74.6218 73.7169 74.2127 73.872 73.8225 73.872C72.8576 73.872 72.0791 73.3702 71.4971 72.6219C71.0874 72.0951 70.9505 71.4381 70.9505 70.784C70.9505 70.1259 71.0881 69.3773 71.3265 68.56ZM80.1585 68.456C79.1985 71.208 77.9185 73.288 76.3185 74.696C74.7825 76.104 73.1505 77.064 71.4225 77.576C69.6945 78.088 68.0625 78.344 66.5265 78.344C64.4785 78.344 62.6865 77.992 61.1505 77.288C59.6785 76.584 58.5265 75.56 57.6945 74.216C56.8625 72.808 56.4145 71.08 56.3505 69.032C56.2865 66.984 56.6705 64.584 57.5025 61.832L72.1905 12.968C72.8305 10.792 72.7665 9.19199 71.9985 8.16799C71.3199 7.26321 69.717 6.75814 67.1897 6.65281C66.8567 6.63893 66.5076 6.63199 66.1425 6.63199L66.8145 4.61599C72.0625 4.55199 76.7025 4.19999 80.7345 3.55999C84.4163 2.92719 87.9688 2.08754 91.392 1.04106C91.7771 0.923325 92.1606 0.802967 92.5425 0.679993L72.2865 68.84C71.8385 70.376 71.8385 71.432 72.2865 72.008C72.7345 72.584 73.2465 72.872 73.8225 72.872C74.1425 72.872 74.7825 72.584 75.7425 72.008C76.7025 71.368 77.6945 69.64 78.7185 66.824L80.7345 61.448H82.5585L80.1585 68.456Z" fill="black"/>
<path fill-rule="evenodd" clip-rule="evenodd" d="M1.282 9.07644C0.92638 9.06162 0.593048 9.04681 0.281998 9.032V10.9519C2.458 11.0159 4.09 11.272 5.178 11.72C6.33 12.104 7.098 12.872 7.482 14.024C7.866 15.112 8.05799 16.84 8.05799 19.208V66.824C8.05799 69.128 7.866 70.856 7.482 72.008C7.098 73.16 6.33 73.928 5.178 74.312C4.09 74.696 2.458 74.952 0.281998 75.08V77C0.593048 76.9704 0.92638 76.9442 1.282 76.9214C2.46294 76.8458 3.8896 76.808 5.562 76.808C7.738 76.744 9.946 76.712 12.186 76.712C16.154 76.712 19.546 76.776 22.362 76.904C25.178 76.968 27.29 77 28.698 77C33.498 77 37.626 76.2 41.082 74.6C44.538 73 47.162 70.824 48.954 68.072C50.81 65.256 51.738 62.024 51.738 58.376C51.738 55.752 51.162 53.256 50.01 50.888C48.858 48.52 46.842 46.472 43.962 44.744C41.4946 43.1739 38.1674 42.0459 33.9804 41.3602C33.4079 41.2664 32.8193 41.1809 32.2146 41.1037C32.1944 41.1011 32.1742 41.0986 32.154 41.096V40.904C32.1624 40.9014 32.1708 40.8989 32.1793 40.8963C32.7686 40.717 33.338 40.529 33.8874 40.3323C36.6684 39.337 38.9386 38.1195 40.698 36.68C42.874 34.888 44.41 32.936 45.306 30.824C46.266 28.648 46.746 26.44 46.746 24.2C46.746 19.784 45.05 16.168 41.658 13.352C38.266 10.536 33.21 9.128 26.49 9.128C25.338 9.128 23.386 9.16 20.634 9.224C17.882 9.28799 15.002 9.32 11.994 9.32C9.882 9.32 7.738 9.28799 5.562 9.224C3.8896 9.17481 2.46294 9.12562 1.282 9.07644ZM2.81429 10.136C3.63492 10.1652 4.54109 10.1944 5.5326 10.2236C7.7181 10.2878 9.8719 10.32 11.994 10.32C15.009 10.32 17.8968 10.2879 20.6572 10.2237C20.7483 10.2216 20.8384 10.2195 20.9277 10.2175C20.6633 10.2695 20.4105 10.3296 20.1694 10.3979C19.092 10.7031 18.179 11.1943 17.5581 11.9483C16.9617 12.6725 16.5811 13.6788 16.342 14.8572C16.1 16.0496 15.986 17.5056 15.986 19.208V39.904H14.162V43.536H15.986V66.824C15.986 69.0968 16.1778 70.9217 16.6133 72.2282C17.0808 73.6306 17.9827 74.6498 19.3229 75.1523C20.516 75.5998 22.1633 75.792 24.186 75.792C30.5807 75.792 35.4466 74.3277 38.533 71.1711C41.6464 67.9884 43.138 63.5465 43.138 57.992C43.138 52.8833 41.741 48.7915 38.8175 45.8653C36.2947 43.2837 32.4258 41.9179 27.3909 41.6059C28.7867 41.3761 30.0441 41.0109 31.154 40.5006V41.9774L32.0284 42.0881C37.0079 42.7184 40.7818 43.9055 43.4251 45.5877L43.4362 45.5947L43.4475 45.6015C46.2067 47.257 48.0641 49.174 49.1108 51.3255C50.1967 53.5577 50.738 55.9041 50.738 58.376C50.738 61.8451 49.8585 64.8824 48.119 67.5217L48.116 67.5263C46.442 70.0971 43.9751 72.1586 40.6619 73.6925C37.3672 75.2179 33.3895 76 28.698 76C27.3037 76 25.2047 75.9683 22.3961 75.9045C19.5625 75.776 16.1583 75.712 12.186 75.712C9.94154 75.712 7.72866 75.744 5.54737 75.808C4.55913 75.8081 3.65157 75.8214 2.82565 75.848C3.88834 75.7045 4.78505 75.5102 5.5027 75.2579C6.94873 74.7732 7.94809 73.772 8.43068 72.3242C8.86679 71.0159 9.05799 69.1572 9.05799 66.824V19.208C9.05799 16.8252 8.8695 14.9564 8.42785 13.6993C7.94691 12.2642 6.95716 11.2691 5.52709 10.7824C4.79217 10.4843 3.8823 10.273 2.81429 10.136ZM32.5468 39.7328C35.7201 38.704 38.2126 37.4208 40.0623 35.9081C42.142 34.1953 43.5651 32.3671 44.3854 30.4334L44.3882 30.4269L44.3911 30.4204C45.2985 28.3635 45.746 26.2925 45.746 24.2C45.746 20.0808 44.1819 16.7471 41.0192 14.1214C37.9856 11.6029 33.4142 10.2228 27.1511 10.1327C30.6029 10.5676 33.3047 11.7987 35.1178 13.945C37.4509 16.568 38.53 20.3988 38.53 25.256C38.53 28.1021 38.1327 30.7963 37.3316 33.3331L37.3293 33.3405C36.4945 35.9141 34.9562 38.0094 32.7376 39.604L32.7291 39.6101L32.7205 39.616C32.6632 39.6555 32.6052 39.6944 32.5468 39.7328ZM34.362 14.6C32.314 12.168 28.89 10.952 24.09 10.952C21.146 10.952 19.226 11.496 18.33 12.584C17.434 13.672 16.986 15.88 16.986 19.208V40.904H23.418C27.194 40.904 30.106 40.2 32.154 38.792C34.202 37.32 35.61 35.4 36.378 33.032C37.146 30.6 37.53 28.008 37.53 25.256C37.53 20.52 36.474 16.968 34.362 14.6ZM16.986 42.536V66.824C16.986 69.064 17.178 70.76 17.562 71.912C17.946 73.064 18.65 73.832 19.674 74.216C20.698 74.6 22.202 74.792 24.186 74.792C30.458 74.792 35.002 73.352 37.818 70.472C40.698 67.528 42.138 63.368 42.138 57.992C42.138 53.064 40.794 49.256 38.106 46.568C35.482 43.88 31.13 42.536 25.05 42.536H16.986Z" fill="black"/>
</svg>
