<svg width="313" height="96" viewBox="0 0 313 96" fill="none" xmlns="http://www.w3.org/2000/svg">
<path d="M304.156 26.216C305.884 26.216 307.388 26.568 308.668 27.272C310.012 27.976 311.036 28.904 311.74 30.056C312.508 31.144 312.892 32.392 312.892 33.8C312.892 35.4 312.38 36.808 311.356 38.024C310.396 39.24 309.084 39.848 307.42 39.848C306.076 39.848 304.892 39.432 303.868 38.6C302.844 37.704 302.332 36.456 302.332 34.856C302.332 33.64 302.652 32.616 303.292 31.784C303.996 30.888 304.764 30.184 305.596 29.672C305.148 29.032 304.476 28.712 303.58 28.712C301.596 28.712 299.772 29.32 298.108 30.536C296.444 31.688 295.036 33.192 293.884 35.048C292.732 36.904 291.836 38.888 291.196 41C290.556 43.048 290.236 44.968 290.236 46.76V67.112C290.236 70.248 291.132 72.36 292.924 73.448C294.78 74.472 297.276 74.984 300.412 74.984V77C298.94 76.936 296.86 76.872 294.172 76.808C291.484 76.68 288.636 76.616 285.628 76.616C283.452 76.616 281.276 76.68 279.1 76.808C276.988 76.872 275.388 76.936 274.3 77V74.984C276.924 74.984 278.78 74.504 279.868 73.544C281.02 72.584 281.596 70.76 281.596 68.072V38.024C281.596 35.144 281.084 33.032 280.06 31.688C279.036 30.28 277.116 29.576 274.3 29.576V27.56C276.348 27.752 278.332 27.848 280.252 27.848C282.108 27.848 283.868 27.752 285.532 27.56C287.26 27.304 288.828 26.952 290.236 26.504V38.504C290.94 36.648 291.932 34.792 293.212 32.936C294.556 31.016 296.156 29.416 298.012 28.136C299.868 26.856 301.916 26.216 304.156 26.216Z" fill="black"/>
<path d="M249.065 26.216C254.697 26.216 259.081 27.944 262.217 31.4C265.417 34.792 267.017 40.104 267.017 47.336H233.129L233.033 45.512H257.801C257.929 42.376 257.673 39.496 257.033 36.872C256.393 34.184 255.369 32.04 253.961 30.44C252.617 28.84 250.857 28.04 248.681 28.04C245.737 28.04 243.113 29.512 240.809 32.456C238.569 35.4 237.225 40.072 236.777 46.472L237.065 46.856C236.937 47.816 236.841 48.872 236.777 50.024C236.713 51.176 236.681 52.328 236.681 53.48C236.681 57.832 237.385 61.576 238.793 64.712C240.201 67.848 242.025 70.248 244.265 71.912C246.569 73.512 248.937 74.312 251.369 74.312C253.289 74.312 255.113 74.024 256.841 73.448C258.569 72.808 260.169 71.784 261.641 70.376C263.113 68.968 264.393 67.08 265.481 64.712L267.401 65.48C266.697 67.592 265.545 69.64 263.945 71.624C262.345 73.608 260.329 75.24 257.897 76.52C255.465 77.736 252.649 78.344 249.449 78.344C244.841 78.344 240.873 77.288 237.545 75.176C234.281 73.064 231.753 70.152 229.961 66.44C228.233 62.664 227.369 58.344 227.369 53.48C227.369 47.848 228.265 43.016 230.057 38.984C231.849 34.888 234.377 31.752 237.641 29.576C240.905 27.336 244.713 26.216 249.065 26.216Z" fill="black"/>
<path d="M193.62 95.048C190.228 95.048 187.028 94.696 184.02 93.992C181.012 93.288 178.58 92.168 176.724 90.632C174.932 89.16 174.036 87.272 174.036 84.968C174.036 82.728 174.932 80.808 176.724 79.208C178.516 77.608 180.948 76.392 184.02 75.56L184.596 77.096C183.188 77.544 182.068 78.44 181.236 79.784C180.404 81.128 179.988 82.632 179.988 84.296C179.988 87.24 181.332 89.48 184.02 91.016C186.772 92.616 190.324 93.416 194.676 93.416C197.556 93.416 200.372 93.032 203.124 92.264C205.876 91.56 208.148 90.344 209.94 88.616C211.732 86.888 212.628 84.616 212.628 81.8C212.628 79.688 211.86 77.96 210.324 76.616C208.852 75.208 205.908 74.504 201.492 74.504H194.388C192.34 74.504 190.356 74.344 188.436 74.024C186.516 73.704 184.948 73.032 183.732 72.008C182.516 70.984 181.908 69.416 181.908 67.304C181.908 65.128 182.804 63.048 184.596 61.064C186.388 59.016 189.684 56.936 194.484 54.824L195.636 55.688C193.46 56.84 191.572 58.024 189.972 59.24C188.372 60.392 187.572 61.768 187.572 63.368C187.572 65.416 189.108 66.44 192.18 66.44H204.18C206.868 66.44 209.332 66.824 211.572 67.592C213.876 68.36 215.732 69.576 217.14 71.24C218.548 72.904 219.252 75.08 219.252 77.768C219.252 80.776 218.292 83.592 216.372 86.216C214.452 88.84 211.572 90.952 207.732 92.552C203.956 94.216 199.252 95.048 193.62 95.048ZM194.1 56.552C190.964 56.552 188.116 56.04 185.556 55.016C182.996 53.928 180.98 52.264 179.508 50.024C178.036 47.784 177.3 44.904 177.3 41.384C177.3 37.864 178.036 34.984 179.508 32.744C180.98 30.504 182.996 28.872 185.556 27.848C188.116 26.76 190.964 26.216 194.1 26.216C197.3 26.216 200.148 26.76 202.644 27.848C205.204 28.872 207.22 30.504 208.692 32.744C210.164 34.984 210.9 37.864 210.9 41.384C210.9 44.904 210.164 47.784 208.692 50.024C207.22 52.264 205.204 53.928 202.644 55.016C200.148 56.04 197.3 56.552 194.1 56.552ZM194.1 54.824C196.532 54.824 198.42 53.864 199.764 51.944C201.172 50.024 201.876 46.504 201.876 41.384C201.876 36.264 201.172 32.744 199.764 30.824C198.42 28.904 196.532 27.944 194.1 27.944C191.732 27.944 189.844 28.904 188.436 30.824C187.028 32.744 186.324 36.264 186.324 41.384C186.324 46.504 187.028 50.024 188.436 51.944C189.844 53.864 191.732 54.824 194.1 54.824ZM207.924 34.184L206.196 33.512C207.092 31.336 208.628 29.416 210.804 27.752C212.98 26.088 215.252 25.256 217.62 25.256C219.284 25.256 220.628 25.736 221.652 26.696C222.676 27.592 223.188 28.968 223.188 30.824C223.188 32.808 222.644 34.216 221.556 35.048C220.532 35.816 219.476 36.2 218.388 36.2C217.428 36.2 216.532 35.88 215.7 35.24C214.868 34.536 214.388 33.448 214.26 31.976C214.132 30.504 214.58 28.616 215.604 26.312L216.852 26.6C214.164 27.624 212.244 28.712 211.092 29.864C209.94 30.952 208.884 32.392 207.924 34.184Z" fill="black"/>
<path d="M150.783 55.4L153.183 55.496C150.879 56.776 148.735 57.96 146.751 59.048C144.831 60.072 143.263 61.032 142.047 61.928C140.831 62.824 140.223 63.688 140.223 64.52C140.223 65.16 140.671 65.768 141.567 66.344C142.463 66.856 143.935 67.368 145.983 67.88L152.991 69.704C155.039 70.216 156.863 70.824 158.463 71.528C160.127 72.168 161.439 73 162.399 74.024C163.359 75.048 163.839 76.392 163.839 78.056C163.839 79.656 163.295 81.448 162.207 83.432C161.183 85.48 159.551 87.432 157.311 89.288C155.135 91.144 152.287 92.68 148.767 93.896C145.247 95.112 140.991 95.72 135.999 95.72C132.671 95.72 129.887 95.4 127.647 94.76C125.343 94.184 123.647 93.352 122.559 92.264C121.407 91.176 120.831 89.928 120.831 88.52C120.831 87.496 121.119 86.408 121.695 85.256C122.271 84.168 123.135 83.08 124.287 81.992C125.375 80.968 126.783 79.976 128.511 79.016C130.175 78.12 132.159 77.352 134.463 76.712L135.135 78.152C132.767 79.368 131.135 80.744 130.239 82.28C129.343 83.816 128.895 85.352 128.895 86.888C128.895 89.448 129.791 91.272 131.583 92.36C133.375 93.512 135.583 94.088 138.207 94.088C140.319 94.088 142.495 93.736 144.735 93.032C146.975 92.392 149.055 91.496 150.975 90.344C152.895 89.256 154.431 87.976 155.583 86.504C156.735 85.032 157.311 83.496 157.311 81.896C157.311 80.936 156.991 80.296 156.351 79.976C155.775 79.656 154.783 79.336 153.375 79.016L138.687 75.272C137.151 74.888 135.903 74.248 134.943 73.352C133.983 72.392 133.503 71.112 133.503 69.512C133.503 68.232 133.951 66.92 134.847 65.576C135.743 64.232 137.439 62.76 139.935 61.16C142.431 59.496 146.047 57.576 150.783 55.4ZM155.679 28.04C153.631 28.04 151.903 28.648 150.495 29.864C149.087 31.016 147.903 32.52 146.943 34.376C146.047 36.168 145.343 38.056 144.831 40.04C144.383 42.024 144.063 43.848 143.871 45.512C143.679 47.112 143.583 48.296 143.583 49.064C143.583 51.112 144.031 52.584 144.927 53.48C145.887 54.376 147.135 54.824 148.671 54.824C151.103 54.824 153.055 54.088 154.527 52.616C156.063 51.144 157.247 49.32 158.079 47.144C158.911 44.968 159.455 42.792 159.711 40.616C160.031 38.44 160.191 36.616 160.191 35.144C160.191 32.968 159.903 31.24 159.327 29.96C158.751 28.68 157.535 28.04 155.679 28.04ZM156.063 26.312C159.839 26.312 162.879 27.176 165.183 28.904C167.551 30.568 168.735 33.288 168.735 37.064C168.735 40.136 167.871 43.176 166.143 46.184C164.415 49.192 161.983 51.688 158.847 53.672C155.711 55.592 151.999 56.552 147.711 56.552C144.191 56.552 141.215 55.72 138.783 54.056C136.415 52.328 135.231 49.672 135.231 46.088C135.231 44.36 135.583 42.376 136.287 40.136C137.055 37.832 138.239 35.656 139.839 33.608C141.439 31.496 143.551 29.768 146.175 28.424C148.863 27.016 152.159 26.312 156.063 26.312ZM162.879 31.304L161.151 30.632C162.047 28.456 163.583 26.536 165.759 24.872C167.935 23.208 170.207 22.376 172.575 22.376C174.239 22.376 175.583 22.856 176.607 23.816C177.631 24.712 178.143 26.152 178.143 28.136C178.143 29.928 177.695 31.24 176.799 32.072C175.903 32.904 174.943 33.32 173.919 33.32C172.895 33.32 171.903 33 170.943 32.36C170.047 31.656 169.503 30.568 169.311 29.096C169.119 27.624 169.535 25.736 170.559 23.432L171.807 23.72C169.119 24.744 167.199 25.832 166.047 26.984C164.895 28.072 163.839 29.512 162.879 31.304Z" fill="black"/>
<path d="M112.356 28.232C110.308 28.232 108.324 29.064 106.404 30.728C104.548 32.328 102.82 34.536 101.22 37.352C99.6839 40.104 98.3079 43.208 97.0919 46.664C95.9399 50.12 95.0439 53.704 94.4039 57.416C93.7639 61.128 93.4439 64.68 93.4439 68.072C93.4439 70.952 93.8919 73.064 94.7879 74.408C95.7479 75.752 97.1239 76.424 98.9159 76.424C100.964 76.424 102.916 75.624 104.772 74.024C106.692 72.36 108.452 70.152 110.052 67.4C111.652 64.584 113.028 61.448 114.18 57.992C115.332 54.536 116.228 50.984 116.868 47.336C117.508 43.624 117.828 40.04 117.828 36.584C117.828 33.64 117.38 31.528 116.484 30.248C115.588 28.904 114.212 28.232 112.356 28.232ZM85.1879 63.272C85.1879 60.456 85.5719 57.384 86.3399 54.056C87.1079 50.728 88.2599 47.432 89.7959 44.168C91.3319 40.904 93.1879 37.928 95.3639 35.24C97.6039 32.552 100.196 30.408 103.14 28.808C106.084 27.144 109.348 26.312 112.932 26.312C116.9 26.312 120.068 27.56 122.436 30.056C124.868 32.488 126.084 36.264 126.084 41.384C126.084 44.2 125.7 47.272 124.932 50.6C124.164 53.928 123.012 57.224 121.476 60.488C119.94 63.752 118.052 66.728 115.812 69.416C113.636 72.104 111.076 74.28 108.132 75.944C105.188 77.544 101.924 78.344 98.3399 78.344C94.3719 78.344 91.1719 77.096 88.7399 74.6C86.3719 72.104 85.1879 68.328 85.1879 63.272Z" fill="black"/>
<path d="M66.3389 68.84C65.8269 70.696 65.6669 72.168 65.8589 73.256C66.0509 74.28 66.7549 74.792 67.9709 74.792C69.2509 74.792 70.4349 74.088 71.5229 72.68C72.6749 71.208 73.8909 68.648 75.1709 65L76.4189 61.448H78.2429L75.8429 68.456C75.0109 70.888 73.9869 72.84 72.7709 74.312C71.6189 75.72 70.3389 76.744 68.9309 77.384C67.5229 78.024 65.9869 78.344 64.3229 78.344C62.2109 78.344 60.6429 77.928 59.6189 77.096C58.6589 76.328 58.0509 75.272 57.7949 73.928C57.6029 72.584 57.6349 71.144 57.8909 69.608C58.2109 68.008 58.5949 66.44 59.0429 64.904L74.6909 12.968C75.3309 10.792 75.2669 9.19199 74.4989 8.16799C73.7309 7.14399 71.7789 6.63199 68.6429 6.63199L69.3149 4.61599C72.8349 4.55199 75.9389 4.19999 78.6269 3.55999C81.3149 2.85599 83.9069 1.89599 86.4029 0.679993L66.3389 68.84Z" fill="black"/>
<path d="M0.766373 9.032C2.11037 9.096 3.87037 9.16 6.04637 9.224C8.22237 9.28799 10.3664 9.31999 12.4784 9.31999C15.4864 9.31999 18.3664 9.28799 21.1184 9.224C23.8704 9.16 25.8224 9.128 26.9744 9.128C33.6944 9.128 38.7504 10.536 42.1424 13.352C45.5344 16.168 47.2304 19.784 47.2304 24.2C47.2304 26.44 46.7504 28.648 45.7904 30.824C44.8944 32.936 43.3584 34.888 41.1824 36.68C39.0704 38.408 36.2224 39.816 32.6384 40.904V41.096C37.6944 41.736 41.6304 42.952 44.4464 44.744C47.3264 46.472 49.3424 48.52 50.4944 50.888C51.6464 53.256 52.2224 55.752 52.2224 58.376C52.2224 62.024 51.2944 65.256 49.4384 68.072C47.6464 70.824 45.0224 73 41.5664 74.6C38.1104 76.2 33.9824 77 29.1824 77C27.7744 77 25.6624 76.968 22.8464 76.904C20.0304 76.776 16.6384 76.712 12.6704 76.712C10.4304 76.712 8.22237 76.744 6.04637 76.808C3.87037 76.808 2.11037 76.872 0.766373 77V75.08C2.94237 74.952 4.57437 74.696 5.66237 74.312C6.81437 73.928 7.58237 73.16 7.96637 72.008C8.35037 70.856 8.54237 69.128 8.54237 66.824V19.208C8.54237 16.84 8.35037 15.112 7.96637 14.024C7.58237 12.872 6.81437 12.104 5.66237 11.72C4.57437 11.272 2.94237 11.016 0.766373 10.952V9.032ZM24.5744 10.952C21.6304 10.952 19.7104 11.496 18.8144 12.584C17.9184 13.672 17.4704 15.88 17.4704 19.208V66.824C17.4704 69.064 17.6624 70.76 18.0464 71.912C18.4304 73.064 19.1344 73.832 20.1584 74.216C21.1824 74.6 22.6864 74.792 24.6704 74.792C30.9424 74.792 35.4864 73.352 38.3024 70.472C41.1824 67.528 42.6224 63.368 42.6224 57.992C42.6224 53.064 41.2784 49.256 38.5904 46.568C35.9664 43.88 31.6144 42.536 25.5344 42.536H15.6464C15.6464 42.536 15.6464 42.28 15.6464 41.768C15.6464 41.192 15.6464 40.904 15.6464 40.904H23.9024C27.6784 40.904 30.5904 40.2 32.6384 38.792C34.6864 37.32 36.0944 35.4 36.8624 33.032C37.6304 30.6 38.0144 28.008 38.0144 25.256C38.0144 20.52 36.9584 16.968 34.8464 14.6C32.7984 12.168 29.3744 10.952 24.5744 10.952Z" fill="black"/>
</svg>
